<?xml version="1.0" standalone="no"?>
<!DOCTYPE svg PUBLIC "-//W3C//DTD SVG 1.1//EN" "http://www.w3.org/Graphics/SVG/1.1/DTD/svg11.dtd" >
<!--
2013-9-30: Created.
-->
<svg>
<metadata>
Created by iconfont
</metadata>
<defs>

<font id="iconfont" horiz-adv-x="1024" >
  <font-face
    font-family="iconfont"
    font-weight="500"
    font-stretch="normal"
    units-per-em="1024"
    ascent="896"
    descent="-128"
  />
    <missing-glyph />
    
    <glyph glyph-name="bianjiwenjian" unicode="&#59279;" d="M731.4011975 685.7964075q-10.53892219 0-17.72455125 7.18562905t-11.97604781 16.76646751-7.18562906 19.64071875-2.39520938 16.7664675l0 117.84431157 1.9161675 0q8.62275469 0 16.28742469-1.9161675t18.682635-9.10179657 26.82634687-20.11976062 39.76047938-34.01197594q25.86826313-22.99401187 41.197605-38.80239562t23.47305375-26.82634688 10.05988031-18.682635 1.9161675-13.41317344l0-15.32934093-140.83832343 0zM1029.36526906 234.53892186999997q2.87425125-7.66467094 3.832335-19.16167687t-9.58083844-22.03592813q-4.79041875-4.79041875-8.62275468-9.10179656t-6.70658719-7.18562906q-3.832335-3.832335-6.7065872-5.74850344l-81.4371253 80.47904157q5.74850343 4.79041875 12.93413156 11.49700593t11.97604781 10.53892219q11.49700594 10.53892219 24.91017937 9.10179656t22.03592813-6.22754531q9.58083844-4.79041875 20.5988025-16.7664675t16.7664675-25.38922125zM691.16167625 145.43712562999997q21.07784438 0 35.44910156 11.49700593l-185.86826343-193.53293437-264.43113751 0q-18.20359313 0-39.76047937 10.53892219t-40.23952125 27.78443156-31.13772469 39.76047937-12.45508969 46.46706563l0 652.45509q0 20.11976063 9.10179657 42.15568875t24.91017937 39.76047937 35.92814344 29.70059906 42.15568876 11.97604782l366.94610811 0 0-119.76047907q0-18.20359313 5.74850344-39.2814375t17.72455125-38.80239562 31.13772469-29.70059906 45.98802375-11.97604782l139.88023969 0 0-317.12574843-131.257485-136.04790375q10.53892219 15.32934094 10.53892218 33.53293406 0 24.91017938-17.72455125 42.63473062t-42.63473062 17.72455125l-359.28143719 0q-24.91017938 0-42.15568875-17.72455125t-17.24550937-42.63473062 17.24550937-42.15568875 42.15568875-17.24550938l359.28143719 0zM331.88023906 504.71856281q-24.91017938 0-42.15568875-17.72455125t-17.24550937-42.63473062 17.24550937-42.15568875 42.15568875-17.24550938l359.28143719 0q24.91017938 0 42.63473063 17.24550938t17.72455125 42.15568875-17.72455125 42.63473062-42.63473063 17.72455125l-359.28143719 0zM693.07784469 24.71856280999998l12.45508968 12.45508969 23.95209564 23.95209562q14.37125719 14.37125719 31.61676656 32.09580845t34.4910178 34.97005968q41.197605 41.197605 92.93413219 91.9760475l80.47904156-80.47904156-92.93413218-92.93413218-34.49101781-34.49101782-31.61676657-31.61676657q-13.41317344-13.41317344-22.51497-22.99401187t-10.05988031-10.53892219q-4.79041875-3.832335-10.53892219-8.14371281t-11.49700593-7.18562906-17.72455125-7.18562907-24.4311375-8.14371281-23.95209563-6.70658719-17.24550937-3.832335q-11.49700594-1.9161675-15.32934094 2.87425125t-1.9161675 16.28742469q0.95808375 5.74850343 3.832335 17.24550938t6.70658719 23.47305375 7.18562906 22.51497 5.26946062 14.37125718q5.74850343 12.45508969 15.32934094 22.03592813z"  horiz-adv-x="1069" />

    
    <glyph glyph-name="baojia" unicode="&#58933;" d="M128.50996 195.314741q0-26.517928 18.358566-45.386454t44.876494-18.868526l253.960159 0 0-127.49004-317.195219 0q-26.517928 0-49.466135 9.689243t-40.286853 27.027888-27.537849 40.796813-10.199203 49.976096l0 637.450199q0 26.517928 10.199203 49.466135t27.537849 40.286853 40.286853 27.537849 49.466135 10.199203l764.940239 0q26.517928 0 49.466135-10.199203t40.286853-27.537849 27.537849-40.286853 10.199203-49.466135l0-188.685259-127.49004-4.079681 0 2.039841q0 26.517928-18.868526 44.876494t-45.386454 18.358566l-637.450199 0q-26.517928 0-44.876494-18.358566t-18.358566-44.876494l0-382.47012zM733.322709 580.844622q60.175299 0 112.701195-22.948207t91.792829-62.215139 62.215139-92.302789 22.948207-113.211155-22.948207-112.701195-62.215139-91.282869-91.792829-61.705179-112.701195-22.948207-112.701195 22.948207-91.792829 61.705179-62.215139 91.282869-22.948207 112.701195 22.948207 113.211155 62.215139 92.302789 91.792829 62.215139 112.701195 22.948207zM804.717131 322.804781l89.752988 84.653386-44.876494 46.916335-100.972112-97.912351 32.63745-33.657371-107.091633 0 32.63745 41.816733-93.832669 91.792829-38.756972-50.996016 85.673307-82.613546-85.673307 0 0-64.25498 127.49004 0 0-63.23506-127.49004 0 0-64.25498 127.49004 0 0-63.23506 64.25498 0 0 63.23506 127.49004 0 0 64.25498-127.49004 0 0 63.23506 127.49004 0 0 64.25498-88.733068 0z"  horiz-adv-x="1024" />

    
    <glyph glyph-name="zulin" unicode="&#58934;" d="M530.1348 480.7855l96.8584 0 0-47.8316-96.8584 0 0 47.8316ZM530.1348 385.1224l96.8584 0 0-63.7098-96.8584 0 0 63.7098ZM530.1348 273.581l96.8584 0 0-63.8087-96.8584 0 0 63.8087ZM926.3988 540.2272 573.0066 830.2935c-32.4514 26.6939-85.2468 26.6939-117.6981 0L101.9162 540.2272c-32.5513-26.7928-32.5513-70.0605 0-96.7544l84.750099 0 0-358.240113c0-54.2812 43.963-98.2434 98.2475-98.2434l458.486403 0c54.2845 0 98.2475 43.9622 98.2475 98.2434L841.647702 443.472813l84.750099 0C958.9501 470.1667 958.9501 513.4344 926.3988 540.2272zM705.0946 161.9417 441.216386 161.9417l0 47.83157 35.626342 0 0 91.693832c-1.1982 1.3711-2.2626 2.5593-3.4378 3.8974l-30.4027-35.7508c-10.6182 15.3816-20.9397 29.8697-30.7644 43.2667l0-166.814899-50.909621 0L361.328207 314.86401c-10.8171-31.3587-23.8169-61.0296-38.8023-89.1136-4.8629 20.4421-11.3138 41.5788-19.3517 63.7088 17.8626 26.6939 33.8415 58.5483 48.0325 95.6631l-45.650966 0L305.555741 432.953945l55.772529 0 0 51.503081c-15.9778-1.488-32.3514-2.6792-48.6271-3.6715-1.4891 18.6564-4.0694 34.5346-7.1455 47.7326 43.3674 2.0846 91.9955 7.2451 145.4855 15.9772l12.4051-47.8316c-17.0691-3.9693-34.1383-7.443-51.2084-10.4199l0-53.289869 52.498611 0 0-47.830571-52.498611 0 0-41.579809 13.9931 13.6947c12.1513-12.7124 28.1241-30.1705 47.175-51.8738l3.4378 4.0423 0 219.111442 203.441611 0 0-318.744891 24.810221 0L705.095601 161.941692z"  horiz-adv-x="1000" />

    
    <glyph glyph-name="pinglun" unicode="&#58904;" d="M792.9984 163.5328 636.3328 163.5328l-95.6608-95.6672c-13.568-13.5616-35.5584-13.5616-49.12 0l-95.6672 95.6672L237.3952 163.5328c-38.3552 0-69.4528 31.0912-69.4528 69.4528L167.9424 614.9568c0 38.3552 31.0976 69.4528 69.4528 69.4528l555.6032 0c38.3552 0 69.4592-31.0976 69.4592-69.4528l0-381.9776C862.4576 194.624 831.3536 163.5328 792.9984 163.5328zM792.9984 580.2368c0 19.1744-15.5328 34.7264-34.7264 34.7264L272.1216 614.9632c-19.1744 0-34.7264-15.552-34.7264-34.7264l0-312.5312c0-19.1936 15.552-34.7264 34.7264-34.7264l23.9232 0c1.8304-0.3072 3.4752-1.088 5.376-1.088l126.88 0 63.2448-63.2448c13.568-13.5296 35.552-13.5296 49.12 0l63.2448 63.2448 120.7232 0c1.9008 0 3.5264 0.7808 5.3568 1.088l28.2816 0c19.1936 0 34.7264 15.5328 34.7264 34.7264L792.9984 580.2368zM602.0096 371.8784c-28.7552 0-52.0896 23.3152-52.0896 52.0896 0 28.7552 23.3344 52.0896 52.0896 52.0896s52.0896-23.3344 52.0896-52.0896C654.0992 395.1936 630.7712 371.8784 602.0096 371.8784zM428.3904 371.8784c-28.7744 0-52.0896 23.3152-52.0896 52.0896 0 28.7552 23.3152 52.0896 52.0896 52.0896s52.0896-23.3344 52.0896-52.0896C480.4736 395.1936 457.1648 371.8784 428.3904 371.8784z"  horiz-adv-x="1024" />

    
    <glyph glyph-name="daibanzhubanxiangmu" unicode="&#58926;" d="M941.5711 560.7741 516.1687 852.011 90.7633 560.7741 516.1687 269.5444 941.5711 560.7741zM516.1687 204.5635 140.672 452.1411l-49.9087-51.7949 425.4054-291.2338L941.5711 400.3461l-50.5702 52.8978L516.1687 204.5635zM516.1687 44.1313 140.672 291.712l-49.9087-51.7949 425.4054-291.2338L941.5711 239.9201l-50.5702 52.8947L516.1687 44.1313z"  horiz-adv-x="1024" />

    
    <glyph glyph-name="duanxin" unicode="&#58911;" d="M517.7364 864.5069c-279.8705 0-514.2702-194.4576-514.2702-434.3296 0-138.196 77.8045-261.3391 197.2777-340.908 4.9695-112.3666-84.9326-187.4176-84.9326-187.4176s206.0268 34.7197 292.2619 104.0517c35.4345-6.6345 72.1388-10.1356 109.6632-10.1356 279.8418 0 504.8259 194.5364 504.8259 434.4105C1022.5623 670.0483 797.5782 864.5069 517.7364 864.5069zM516.5824 80.5612c-232.5238 0-427.2742 137.1054-427.2742 336.4188 0 199.3124 194.7505 362.4376 427.2742 362.4376 232.4961 0 419.4417-163.1252 419.4417-362.4376C936.0241 217.6655 749.0785 80.5612 516.5824 80.5612zM718.7384 456.1172 307.506176 456.1172c-15.1572 0-27.4698-12.287-27.4698-27.4698l0-27.496448c0-15.1828 12.3126-27.4698 27.4698-27.4698L718.738432 373.681152c15.1572 0 27.4698 12.287 27.4698 27.4698l0 27.496448C746.2083 443.8313 733.8957 456.1172 718.7384 456.1172zM718.7384 592.8448 307.506176 592.8448c-15.1572 0-27.4698-12.286-27.4698-27.4422l0-27.522048c0-15.1828 12.3126-27.4698 27.4698-27.4698L718.738432 510.410752c15.1572 0 27.4698 12.287 27.4698 27.4698l0 27.522048C746.2083 580.5588 733.8957 592.8448 718.7384 592.8448zM718.7384 317.9653 307.506176 317.9653c-15.1572 0-27.4698-12.3116-27.4698-27.4688l0-26.66496c0-15.1562 12.3126-27.4678 27.4698-27.4678L718.738432 236.36374c15.1572 0 27.4698 12.3116 27.4698 27.4678l0 26.66496C746.2083 305.6538 733.8957 317.9653 718.7384 317.9653z"  horiz-adv-x="1024" />

    
    <glyph glyph-name="ckkc" unicode="&#58887;" d="M837.952 745.6l-50.048 0c-19.84 0-35.776-16-35.776-35.648 0-19.648 15.936-35.648 35.648-35.648l39.616-0.32-0.384-730.688L196.672-56.32 196.992 674.304l39.232 0c19.648 0 35.648 16 35.648 35.648 0 19.648-16 35.648-35.648 35.648L186.048 745.6c-33.472 0-60.672-27.264-60.672-60.736l0-752.128C125.376-100.8 152.576-128 186.048-128l651.904 0c33.408 0 60.672 27.2 60.672 60.736L898.624 684.864C898.624 718.336 871.36 745.6 837.952 745.6zM336.512 624.128l350.976 0c17.472 0 33.6 7.616 44.032 20.864 10.432 13.248 13.888 30.656 9.536 47.808L728.128 744.32c-7.104 28.8-36.032 51.392-65.728 51.392l-47.36 0-12.16 48.96C595.52 873.92 567.232 896 537.088 896L486.912 896C456.768 896 428.48 873.92 421.184 844.672L408.96 795.712 361.6 795.712c-29.696 0-58.624-22.592-65.728-51.328L282.944 692.8C278.656 675.648 282.112 658.176 292.48 644.928 302.848 631.68 318.912 624.128 336.512 624.128zM364.352 724.352l47.36 0c29.696 0 58.56 22.528 65.728 51.328l12.224 48.96L534.144 824.96 546.56 775.808c7.168-28.864 36.032-51.456 65.664-51.456l47.36 0 7.424-28.864-309.76 0.896L364.352 724.352zM687.488 545.024 336.512 545.024c-19.712 0-35.648-16-35.648-35.648s16-35.648 35.648-35.648l350.976 0c19.712 0 35.648 16 35.648 35.648C723.136 529.088 707.2 545.024 687.488 545.024zM687.488 444.736 336.512 444.736c-19.712 0-35.648-16-35.648-35.712 0-19.648 16-35.648 35.648-35.648l350.976 0c19.712 0 35.648 16 35.648 35.648C723.136 428.736 707.2 444.736 687.488 444.736zM687.488 344.448 336.512 344.448c-19.712 0-35.648-16-35.648-35.712 0-19.776 16-35.648 35.648-35.648l350.976 0c19.712 0 35.648 15.872 35.648 35.648C723.136 328.448 707.2 344.448 687.488 344.448zM687.488 244.096 336.512 244.096c-19.712 0-35.648-16-35.648-35.712S316.864 172.8 336.512 172.8l350.976 0c19.712 0 35.648 15.936 35.648 35.648S707.2 244.096 687.488 244.096zM687.488 143.872 336.512 143.872c-19.712 0-35.648-15.936-35.648-35.776 0-19.712 16-35.648 35.648-35.648l350.976 0c19.712 0 35.648 15.936 35.648 35.648C723.136 127.936 707.2 143.872 687.488 143.872z"  horiz-adv-x="1024" />

    
    <glyph glyph-name="more" unicode="&#59005;" d="M495.507456 38.56384c3.987456-3.82976 9.3952-5.971968 15.036416-5.971968 5.620736 0 11.029504 2.142208 15.015936 5.971968M525.559808 38.56384l403.750912 386.7136c17.759232 16.965632 16.654336 45.280256-1.051648 62.21312-17.673216 16.899072-46.267392 17.03936-64.0256 0.07168L510.523392 149.15584 156.850176 487.563264c-17.773568 16.96768-46.370816 16.827392-64.04096-0.07168-17.705984-16.932864-18.813952-45.247488-1.05472-62.21312l403.753984-386.7136M495.251456 338.59584c3.987456-3.82976 9.3952-5.971968 15.036416-5.971968 5.620736 0 11.029504 2.142208 15.015936 5.971968M525.303808 338.59584l403.750912 386.7136c17.759232 16.965632 16.654336 45.280256-1.051648 62.21312-17.673216 16.899072-46.267392 17.03936-64.0256 0.07168L510.267392 449.18784 156.594176 787.595264c-17.773568 16.96768-46.370816 16.827392-64.04096-0.07168-17.705984-16.932864-18.813952-45.247488-1.05472-62.21312l403.753984-386.7136"  horiz-adv-x="1024" />

    
    <glyph glyph-name="favorite" unicode="&#58929;" d="M222.696-105.088c-9.1 0-18.154 2.826-25.8 8.38-13.514 9.818-20.282 26.458-17.458 42.922l51.352 299.414L13.254 457.672c-11.962 11.66-16.268 29.1-11.104 44.988 5.162 15.888 18.896 27.466 35.426 29.868l300.626 43.684 134.442 272.414c7.394 14.978 22.648 24.462 39.354 24.462 16.706 0 31.96-9.484 39.354-24.462l134.446-272.414 300.624-43.684c16.532-2.402 30.266-13.98 35.428-29.868s0.858-33.328-11.106-44.988L793.212 245.628l51.354-299.412c2.824-16.464-3.944-33.106-17.458-42.924-13.518-9.818-31.432-11.116-46.218-3.34L512 41.312l-268.888-141.36C236.692-103.422 229.678-105.088 222.696-105.088zM138.196 458.456l170.38-166.08c10.342-10.084 15.062-24.61 12.622-38.844L280.976 19.02l210.602 110.718c12.784 6.72 28.056 6.72 40.844 0l210.606-110.718-40.224 234.512c-2.442 14.236 2.278 28.762 12.624 38.846l170.378 166.08-235.458 34.214c-14.294 2.078-26.65 11.054-33.042 24.008L512 730.042l-105.3-213.364c-6.394-12.954-18.75-21.93-33.044-24.008L138.196 458.456z"  horiz-adv-x="1024" />

    
    <glyph glyph-name="sort" unicode="&#58958;" d="M298.666 448l426.668 0L512 704 298.666 448zM725.334 320 298.666 320 512 64 725.334 320z"  horiz-adv-x="1024" />

    
    <glyph glyph-name="phone" unicode="&#58912;" d="M605.323264 812.790784c-2.212864 0.467968-4.405248 0.723968-6.598656 0.8192-19.753984 0.755712-37.037056-12.750848-41.017344-32.152576-2.194432-10.52672-0.149504-21.286912 5.787648-30.301184 5.917696-9.004032 14.98624-15.156224 25.5232-17.3056 84.826112-17.508352 157.858816-67.093504 205.625344-139.616256 47.745024-72.554496 64.391168-159.220736 46.936064-244.045824-2.193408-10.559488-0.149504-21.298176 5.788672-30.290944 5.917696-9.004032 14.98624-15.14496 25.5232-17.327104 2.212864-0.436224 4.44928-0.703488 6.62016-0.80896 8.451072-0.319488 16.623616 1.980416 23.692288 6.62016 9.003008 5.927936 15.1552 15.00672 17.32608 25.53344C965.613568 552.833024 824.231936 767.674368 605.323264 812.790784L605.323264 812.790784zM674.717696 207.326208c2.382848-1.554432 55.5776-35.707904 96.448512-77.683712 15.388672-15.879168 41.166848-42.4448 40.484864-73.2672-0.574464-21.052416-12.45184-42.16832-36.334592-64.454656-5.9392-5.83168-59.133952-55.515136-144.234496-55.515136-23.309312 0-47.255552 3.703808-71.181312 10.985472-25.1392 7.619584-50.704384 19.392512-75.907072 34.929664-99.51232 58.771456-176.313344 134.444032-249.239552 245.440512-125.353984 190.768128-128.95232 354.1504-128.376832 384.941056 0.212992 142.1056 118.564864 198.003712 132.059136 203.921408 18.562048 8.609792 34.782208 12.750848 49.724416 12.750848 7.15264 0 14.007296-0.968704 20.349952-2.906112 13.047808-3.958784 31.163392-14.21824 43.338752-40.592384 16.603136-35.781632 32.313344-87.081984 43.040768-140.786688 11.282432-55.738368-19.966976-71.38304-50.192384-86.50752l-1.19296-0.521216c0 0-53.471232-22.308864-62.87872-26.182656-9.238528-3.852288-14.04928-14.261248-10.899456-23.776256 21.563392-65.327104 54.493184-133.070848 95.192064-195.90656 40.039424-61.827072 87.656448-118.884352 137.678848-165.074944 3.575808-3.257344 8.173568-5.087232 13.028352-5.087232l1.639424 0.084992c5.257216 0.42496 10.217472 3.086336 13.5168 7.3216 8.129536 10.450944 20.603904 25.511936 33.759232 38.038528 24.946688 23.723008 47.509504 35.238912 68.967424 35.238912 5.874688 0 11.708416-0.862208 17.327104-2.576384C656.219136 218.489856 664.925184 213.807104 674.717696 207.326208L674.717696 207.326208zM505.449472 482.312192c-10.558464 2.192384-19.627008 8.323072-25.54368 17.31584-5.960704 9.004032-8.003584 19.775488-5.832704 30.332928 4.0448 19.381248 21.285888 32.898048 41.018368 32.110592 2.193408-0.064512 4.407296-0.329728 6.619136-0.787456 93.553664-19.286016 153.986048-111.135744 134.720512-204.732416-2.1504-10.492928-8.280064-19.550208-17.284096-25.521152-7.088128-4.629504-15.30368-6.918144-23.691264-6.62016-2.171904 0.115712-4.385792 0.362496-6.598656 0.830464-10.579968 2.139136-19.667968 8.312832-25.585664 17.327104-5.917696 8.972288-7.9616 19.710976-5.789696 30.268416 4.980736 24.223744 0.256 48.958464-13.411328 69.669888C550.448128 463.17568 529.650688 477.330432 505.449472 482.312192L505.449472 482.312192zM547.340288 608.581632c-21.75488 4.512768-35.80416 25.851904-31.3344 47.596544 4.001792 19.423232 21.243904 32.951296 40.997888 32.18432 2.169856-0.095232 4.406272-0.351232 6.619136-0.8192 75.71456-15.612928 140.852224-59.845632 183.510016-124.608512 42.59328-64.720896 57.470976-142.063616 41.847808-217.7792-2.171904-10.558464-8.324096-19.647488-17.328128-25.53344-7.087104-4.672512-15.240192-6.960128-23.668736-6.6304-2.194432 0.096256-4.427776 0.362496-6.641664 0.830464-21.711872 4.458496-35.781632 25.808896-31.311872 47.59552 11.260928 54.6304 0.53248 110.485504-30.247936 157.241344C649.003008 565.39136 602.003456 597.330944 547.340288 608.581632z"  horiz-adv-x="1024" />

    
    <glyph glyph-name="botarrow" unicode="&#58927;" d="M325.456896 33.72032M882.05824 33.72032M236.027904 18.838528M960.132096 18.838528M63.683584 107.262976M958.46912 107.262976M64.77824 37.208064M163.396608 606.831616c-40.577024 0-66.526208-54.183936-35.44064-85.25824L477.217792 172.295168c20.031488-20.031488 49.82272-20.031488 69.853184 0l349.274112 349.278208c30.30528 30.294016 6.677504 85.25824-34.927616 85.25824L163.396608 606.831616zM959.522816 37.208064"  horiz-adv-x="1024" />

    
    <glyph glyph-name="rightarrow" unicode="&#58924;" d="M325.456896 33.72032M882.05824 33.72032M236.027904 18.838528M960.132096 18.838528M154.215424 19.84M816.575488 386.208768 209.619968 832.929792 209.619968-61.022208ZM871.471104 19.84"  horiz-adv-x="1024" />

    
    <glyph glyph-name="leftarrow" unicode="&#58925;" d="M325.456896 33.72032M882.05824 33.72032M236.027904 18.838528M817.898496-66.556928 817.898496 832.345088 207.63648 382.900224ZM960.132096 18.838528"  horiz-adv-x="1024" />

    
    <glyph glyph-name="qiehuan" unicode="&#58916;" d="M16.275456 113.755136M667.128832 166.38976 667.128832 1.815552 957.792256 264.984576 667.128832 510.473216 667.128832 370.642944 395.318272 370.642944 395.318272 166.38976ZM326.972416 314.476544 326.972416 438.198272 599.568384 438.198272 599.568384 642.453504 326.972416 642.453504 326.972416 769.32096 67.731456 537.187328ZM977.830912 113.755136"  horiz-adv-x="1024" />

    
    <glyph glyph-name="jianyi" unicode="&#58905;" d="M478.150656 195.439616l502.624256 502.627328c16.3328 16.333824 16.3328 42.814464 0 59.148288l-59.128832 59.127808c-16.3328 16.333824-42.83392 16.333824-59.16672 0L359.85408 313.696256 478.150656 195.439616zM300.726272 254.567424c-32.667648-32.647168-62.230528-115.172352-29.563904-147.838976 32.666624-32.648192 115.192832-3.103744 147.818496 29.56288l29.604864 29.584384L330.290176 284.131328 300.726272 254.567424zM903.883776 7.662592c0-23.069696-18.701312-41.814016-41.814016-41.814016L151.232512-34.151424c-23.112704 0-41.814016 18.74432-41.814016 41.814016L109.418496 760.317952c0 23.113728 18.701312 41.814016 41.814016 41.814016l543.58016 0L694.812672 885.761024 109.418496 885.761024c-46.183424 0-83.628032-37.444608-83.628032-83.628032l0-836.283392c0-46.181376 37.444608-83.607552 83.628032-83.607552l794.46528 0c46.184448 0 83.628032 37.4272 83.628032 83.607552l0 501.77024-83.628032 0L903.883776 7.662592z"  horiz-adv-x="1024" />

    
    <glyph glyph-name="wx" unicode="&#58946;" d="M579.8656 384.067584c-11.669504 0-23.344128-10.836992-23.344128-24.177664 0-10.83904 11.66848-21.67808 23.344128-21.67808 17.514496 0 30.019584 10.83904 30.019584 21.67808C609.885184 373.229568 597.380096 384.067584 579.8656 384.067584L579.8656 384.067584zM503.153664 496.64c18.343936 0 30.019584 11.669504 30.019584 29.185024 0 18.34496-11.674624 29.182976-30.019584 29.182976-17.5104 0-34.188288-10.83904-34.188288-29.182976C468.964352 508.30848 485.643264 496.64 503.153664 496.64L503.153664 496.64zM512.325632 895.439872c-282.65472 0-511.788032-229.133312-511.788032-511.788032 0-282.652672 229.133312-511.785984 511.788032-511.785984 282.652672 0 511.785984 229.133312 511.785984 511.785984C1024.11264 666.30656 794.979328 895.439872 512.325632 895.439872L512.325632 895.439872zM415.601664 253.991936c-30.855168 0-53.368832 4.999168-82.552832 13.340672l-84.217856-42.529792 24.185856 71.714816c-59.203584 41.688064-94.22848 94.221312-94.22848 158.42816 0 113.40288 106.732544 200.123392 236.814336 200.123392 115.068928 0 217.632768-68.376576 237.643776-165.105664-8.337408 1.672192-15.844352 2.501632-22.513664 2.501632-113.40288 0-200.953856-85.049344-200.953856-187.613184 0-17.508352 2.501632-33.350656 6.67136-50.030592C429.778944 253.991936 422.272 253.991936 415.601664 253.991936L415.601664 253.991936zM763.3152 172.275712l16.673792-60.040192-63.371264 35.854336c-24.179712-4.999168-47.52896-12.505088-71.708672-12.505088-111.736832 0-200.123392 76.711936-200.123392 171.768832 0 95.05792 88.387584 171.77088 200.123392 171.77088 105.895936 0 200.953856-76.71296 200.953856-171.77088C845.862912 253.991936 810.008576 206.462976 763.3152 172.275712L763.3152 172.275712zM338.05312 555.008c-17.5104 0-35.854336-10.83904-35.854336-29.182976 0-17.51552 18.343936-29.190144 35.854336-29.190144 16.678912 0 30.019584 11.674624 30.019584 29.190144C368.072704 544.16896 354.732032 555.008 338.05312 555.008L338.05312 555.008zM710.782976 384.067584c-12.510208 0-23.349248-10.836992-23.349248-24.177664 0-10.83904 10.83904-21.67808 23.349248-21.67808 16.673792 0 29.182976 10.83904 29.182976 21.67808C739.965952 373.229568 727.456768 384.067584 710.782976 384.067584L710.782976 384.067584zM710.782976 384.067584"  horiz-adv-x="1024" />

    
    <glyph glyph-name="cldb" unicode="&#58888;" d="M342.976 892.608l0-0.64L129.92 679.552l0-804.096 737.344 0L867.264 892.608 342.976 892.608zM782.464-39.872 214.848-39.872 214.848 594.752l212.8 0 0 213.12 354.752 0L782.4-39.872zM398.208 467.456l321.344 0 0-70.656-321.344 0 0 70.656ZM398.208 317.312l321.344 0 0-70.656-321.344 0 0 70.656ZM398.208 166.336l321.344 0 0-70.656-321.344 0 0 70.656ZM314.816 432.192m-35.264 0a0.551 0.551 0 1 0 70.528 0 0.551 0.551 0 1 0-70.528 0ZM314.816 282.176m-35.264 0a0.551 0.551 0 1 0 70.528 0 0.551 0.551 0 1 0-70.528 0ZM314.816 131.584m-35.264 0a0.551 0.551 0 1 0 70.528 0 0.551 0.551 0 1 0-70.528 0Z"  horiz-adv-x="1024" />

    
    <glyph glyph-name="sqa" unicode="&#58883;" d="M517.51936 420.747264c-31.848448-1.156096-64.162816-2.886656-96.930816-5.192704 9.69216-6.464512 18.231296-12.00128 25.61536-16.61952 7.386112-4.615168 11.541504-6.924288 12.466176-6.924288-3.69664-6.001664-7.617536-11.308032-11.772928-15.9232s-8.076288-9.233408-11.772928-13.848576l65.775616 0 87.932928 0c-2.767872 1.846272-5.536768 3.576832-8.308736 5.193728-2.768896 1.615872-5.768192 3.576832-8.999936 5.885952 0.462848 0.459776 1.846272 2.306048 4.155392 5.537792 2.306048 3.231744 4.963328 7.272448 7.9616 12.116992 2.998272 4.847616 6.230016 10.041344 9.69216 15.578112 3.462144 5.540864 6.5792 10.614784 9.348096 15.233024C577.754112 422.243328 549.366784 421.899264 517.51936 420.747264zM423.35744 315.848704l0-92.084224 119.085056 0c9.696256 0.462848 18.696192 2.538496 27.004928 6.23104 6.46144 3.231744 12.576768 8.080384 18.348032 14.539776 5.767168 6.46144 8.653824 15.693824 8.653824 27.695104l-0.693248 43.618304L423.35744 315.848704zM317.421568 405.169152l0-49.160192c6.464512 5.078016 14.081024 11.768832 22.85056 20.078592 8.769536 8.30976 18.691072 19.848192 29.770752 34.618368-9.229312-0.9216-18.347008-1.845248-27.34592-2.767872C333.692928 407.0144 325.26848 406.090752 317.421568 405.169152zM512.324608 834.428928c-248.955904 0-450.774016-201.819136-450.774016-450.776064 0-248.955904 201.819136-450.77504 450.774016-450.77504 248.957952 0 450.776064 201.819136 450.776064 450.77504C963.100672 632.609792 761.28256 834.428928 512.324608 834.428928zM823.54688 545.026048 678.841344 545.026048c5.536768-3.232768 11.078656-6.576128 16.616448-10.037248 5.540864-3.462144 10.50112-6.464512 14.884864-9.003008 4.384768-2.53952 7.964672-4.729856 10.733568-6.576128l4.155392-2.07872c-8.772608-14.7712-17.427456-26.77248-25.96352-36.001792-8.539136-9.233408-16.500736-16.387072-23.887872-21.464064 16.616448-1.385472 26.079232-2.07872 28.388352-2.07872 16.616448-2.305024 31.617024-6.460416 45.003776-12.461056 13.38368-6.00064 24.692736-13.039616 33.926144-21.115904 9.232384-8.07936 16.386048-16.618496 21.464064-25.619456 5.078016-8.998912 7.616512-17.65376 7.616512-25.96352l0-73.392128c0-12.461056 0.114688-25.040896 0.344064-37.732352 0.2304-12.694528-0.344064-24.695808-1.729536-36.004864s-3.807232-21.809152-7.269376-31.502336c-3.462144-9.696256-8.654848-18.00192-15.578112-24.926208-10.156032-8.308736-21.234688-14.539776-33.235968-18.695168-12.002304-4.155392-23.8848-6.693888-35.656704-7.616512-11.77088-0.922624-22.847488-1.038336-33.231872-0.345088-10.386432 0.693248-19.040256 1.73056-25.96352 3.117056l6.230016 12.46208c1.846272 3.690496 3.462144 7.268352 4.844544 10.730496 1.386496 3.462144 2.771968 7.042048 4.155392 10.733568 1.386496 3.69152 3.231744 8.076288 5.540864 13.154304 8.305664 0 14.884864 0.807936 19.730432 2.423808 4.847616 1.615872 8.654848 4.50048 11.426816 8.654848 2.767872 4.155392 4.614144 9.806848 5.536768 16.960512 0.922624 7.156736 1.615872 16.041984 2.075648 26.656768 0.462848 9.693184 0.693248 16.386048 0.693248 20.077568l0 8.30976 0 9.69216 0 19.38944 0 40.15616c0 12.46208-0.807936 23.08096-2.423808 31.850496-1.611776 8.769536-4.959232 16.037888-10.037248 21.808128s-12.694528 10.385408-22.85056 13.847552c-10.151936 3.462144-23.539712 5.886976-40.15616 7.269376-1.846272 0.462848-3.69152 0.693248-5.536768 0.693248-1.850368 0-3.924992 0.229376-6.234112 0.692224 16.155648-12.000256 29.195264-21.46304 39.120896-28.387328 9.92256-6.923264 17.65376-12.23168 23.191552-15.9232 6.464512-4.61824 11.078656-7.616512 13.847552-9.003008l-17.998848-53.310464c-1.386496 0.458752-3.003392 0.9216-4.847616 1.3824-4.615168 0.922624-9.462784 2.538496-14.5408 4.847616l0-70.623232c0-11.998208-2.423808-22.847488-7.268352-32.539648-4.847616-9.69216-11.423744-18.00192-19.733504-24.926208-8.30976-6.923264-17.887232-12.230656-28.73344-15.9232-10.848256-3.694592-22.0416-5.540864-33.580032-5.540864l-69.236736-0.693248-159.93856 0.693248L352.735232 294.387712l0 19.385344c-2.306048-0.9216-4.50048-1.615872-6.575104-2.074624-2.079744-0.462848-3.810304-0.922624-5.192704-1.386496-1.849344-0.463872-3.232768-0.693248-4.155392-0.693248l-19.388416 18.00192 0-184.864768-93.47072 0L223.952896 464.709632l93.47072 0 0-12.461056c2.772992 0.462848 5.540864 0.80896 8.30976 1.038336 2.768896 0.229376 5.536768 0.34816 8.30976 0.34816-4.155392 7.38304-8.654848 17.190912-13.503488 29.425664-4.847616 12.23168-9.577472 28.039168-14.191616 47.424512l95.545344 0c4.155392-17.076224 7.9616-31.271936 11.423744-42.579968 3.462144-11.309056 6.3488-20.657152 8.654848-28.040192 30.927872 1.846272 59.429888 2.999296 85.50912 3.462144 26.079232 0.459776 49.967104 0.459776 71.660544 0 2.306048 3.231744 8.076288 11.42272 17.308672 24.578048 9.230336 13.154304 21.464064 32.193536 36.69504 57.120768L201.104384 545.026048l0 46.390272 252.022784 0 0 33.92512 119.7824 0 0-33.92512 250.637312 0L823.54688 545.026048z"  horiz-adv-x="1024" />

    
    <glyph glyph-name="uparrow" unicode="&#58900;" d="M499.304448 619.541504 27.528192 147.765248 997.122048 147.765248Z"  horiz-adv-x="1024" />

    
    <glyph glyph-name="wd" unicode="&#58884;" d="M876.522736-69.263109c0 0-145.222419-130.005312-145.222419 47.62203 0 111.35804-90.986639 214.676207-211.967914 214.676207s-216.388242-104.805317-216.388242-214.676207c0-178.851698-140.802091-47.62203-140.802091-47.62203-99.67143 95.562231-162.141031 230.303869-162.141031 380.029777 0 289.644883 232.516099 524.444436 519.331364 524.444436 286.821499 0 519.337599-234.799553 519.337599-524.444436C1038.668963 161.04076 976.193126 26.299122 876.522736-69.263109zM519.331364 264.996276c1.523319 0 2.931299-0.4249 4.443188-0.447051 76.11713 2.421527 137.196417 65.117439 137.196417 142.575103 0 78.989116-63.416221 143.022154-141.639605 143.022154-78.217149 0-141.633371-64.033038-141.633371-143.022154 0-77.457664 61.073053-140.153576 137.196417-142.575103C516.4063 264.571376 517.808045 264.996276 519.331364 264.996276zM519.331364 741.013185c-234.334523 0-424.305747-192.170602-424.305747-429.223534 0-127.232386 53.623751-252.937347 140.594271-331.474377 5.383573 116.412538 80.796193 226.059903 183.791701 265.439678-53.248636 33.727195-88.927144 93.091367-88.927144 161.238484 0 105.330904 84.552537 190.710637 188.845879 190.710637s188.852114-85.38074 188.852114-190.710637c0-68.148124-35.678508-127.511289-88.92091-161.238484 102.983039-39.379775 176.924295-149.027139 182.308907-265.439678 86.970521 78.537031 142.065636 204.241991 142.065636 331.474377C943.637111 548.842583 753.665887 741.013185 519.331364 741.013185z"  horiz-adv-x="1039" />

    
    <glyph glyph-name="checkbox" unicode="&#58944;" d="M512 810.666667c-235.642667 0-426.666667-191.026667-426.666667-426.666667s191.024-426.666667 426.666667-426.666667c235.64 0 426.666667 191.026667 426.666667 426.666667S747.64 810.666667 512 810.666667zM512 0c-212.08 0-384 171.925333-384 384 0 212.077333 171.92 384 384 384 212.074667 0 384-171.922667 384-384C896 171.925333 724.074667 0 512 0z"  horiz-adv-x="1024" />

    
    <glyph glyph-name="zan" unicode="&#58895;" d="M858.258 443.637c-16.324 25.379-44.149 39.668-72.942 40.504-1.195 0.14-2.41 0.218-3.648 0.218l-166.75 0.172c11.281 31.203 17.418 64.731 17.418 99.641 0 22.652-2.586 44.715-7.477 65.945l-0.441-0.055C615.52 687.262 580.965 715 539.695 715c-48.019 0-86.949-37.551-86.949-83.875 0-2.801 0.145-5.574 0.422-8.305-2.945-88.718-75.156-160.547-166.184-166.824l0.004-0.504-99.066-0.219c-1.234 0.149-2.484 0.235-3.758 0.235-16.512 0-29.891-12.903-29.891-28.832L154 80.566c0-15.925 13.379-28.828 29.887-28.828 1.679 0 3.324 0.141 4.929 0.395l109.938-0.043c1.523-0.231 3.086-0.352 4.676-0.352 1.586 0 3.14 0.121 4.656 0.348l414.605-0.164 0-0.254c16.25-0.031 32.704 4.262 47.434 13.297 14.199 8.707 24.941 20.687 31.848 34.265 1.699 2.508 3.023 5.313 3.863 8.364l64.582 274.98c0.859 3.125 1.144 6.266 0.93 9.321C872.758 409.434 868.609 427.543 858.258 443.637L858.258 443.637zM214.078 397.676l59.715 0.133-0.231-288.051-59.761 0.023L214.078 397.676 214.078 397.676zM810.984 390.305l-62.175-264.746-0.071 0.031c-2.129-4.906-5.773-9.258-10.777-12.328-3.496-2.145-7.297-3.438-11.149-3.95-1.304 0.168-2.632 0.262-3.984 0.262l-389.484 0.16 0.289 295.196c79.031 19.363 142.285 76.871 167.465 151.019 0.035-0.015 0.07-0.031 0.105-0.047 2.535 7.325 5.336 16.598 7.32 26.543 4.657 23.336 4.176 45.848 4.176 45.848l0.371 0.004c-0.043 0.609-0.074 1.226-0.074 1.848 0 14.89 12.516 26.96 27.949 26.96 15.434 0 27.95-12.07 27.95-26.96 0-0.422-0.016-0.836-0.036-1.254l0.192 0c0 0 4.472-21.598 4.515-45.25 0.047-29.856-3.929-45.426-3.929-45.426l-0.317 0.012c-4.922-24.668-13.648-48.028-25.593-69.477l0.281-0.223c-1.977-3.855-3.094-8.191-3.094-12.777 0-15.922 13.379-28.832 29.891-28.832l210.863-0.219c0.023 0 0.051 0 0.074 0l0-0.074c10.172 0.523 20.317-4.176 26.067-13.113 4.632-7.2 5.433-15.653 2.949-23.141L810.984 390.305 810.984 390.305z"  horiz-adv-x="1024" />

    
    <glyph glyph-name="shouye" unicode="&#58901;" d="M660.931435 498.084315c-16.344916 15.452947-31.059639 29.41903-44.134958 41.900296l-33.88101 31.204699c-8.917456 8.327666-14.263426 13.375635-16.048145 15.160281-16.641687 15.454994-35.369981 22.730701-56.171579 21.840424-20.805691-0.889253-38.638555-8.1711-53.4945-21.840424-2.383378-2.378164-8.177575-7.875365-17.390778-16.499789-9.20911-8.619308-20.653212-19.164478-34.32412-31.646767-13.668861-12.476149-28.82567-26.301016-45.473497-41.453111-16.645781-15.162328-33.287468-30.464849-49.923015-45.918819-39.830756-36.252669-84.111029-76.670194-132.854124-121.247458L177.235709-16.096351c0-14.262842 5.054316-25.261337 15.157832-32.984229 10.108633-7.730055 23.778517-11.588943 41.016816-11.588943l175.649519 0c-0.119732 1.866511-0.2016 3.744277-0.2016 5.641487L408.858277 97.035266c0 48.060599 38.961933 87.020936 87.025525 87.020936l32.231373 0c48.062568 0 87.024501-38.960337 87.024501-87.020936l0-152.064324c0-1.89721-0.081868-3.773953-0.2016-5.641487l175.72013 0c16.643734 0.590448 29.869485 5.941316 39.672137 16.044418 9.811862 10.106172 14.717793 21.695115 14.717793 34.770921l0 337.650113c-49.33766 45.76737-93.917774 87.074148-133.740343 123.926474C694.066424 467.175351 677.276351 482.629321 660.931435 498.084315zM959.165779 417.846876c-0.595589 14.266935-7.128643 27.336602-19.61349 39.225373l-22.291592 22.287609c-11.289577 11.295254-25.256232 24.817222-41.904059 40.563858-16.641687 15.754822-34.919708 33.43653-54.833039 53.049217-19.907191 19.617803-40.272842 39.375799-61.073416 59.290361-20.805691 19.915585-41.308471 39.673581-61.513456 59.291384-20.219312 19.612687-38.492216 37.294394-54.842249 53.0441-16.3398 15.750729-30.167279 29.127388-41.454809 40.120766-11.29674 10.998495-18.724201 17.97949-22.295686 20.955264-18.42129 17.83418-40.708789 26.598798-66.871707 26.295899-26.146545-0.296759-50.522697-11.435447-73.103897-33.431414-2.97692-2.967588-13.526616-12.924357-31.653181-29.863145-18.129635-16.941857-39.824616-37.298488-65.086988-61.07603-25.265442-23.775496-52.604187-49.333592-82.029539-76.67531-29.420235-27.336602-56.913506-52.898791-82.470602-76.670194-25.559143-23.777543-47.550894-44.284599-65.978324-61.519122-18.426406-17.2335-29.420235-27.6395-32.990697-31.203676-9.509974-8.916067-14.564291-20.951171-15.152716-36.103266-0.597635-15.161305 5.0492-28.091802 16.938458-38.788421 10.701151-9.508561 23.480723-13.964036 38.336668-13.371542 14.860038 0.594541 26.749297 4.455475 35.665729 11.586896 2.972826 2.379187 11.737803 10.254551 26.303117 23.626094 14.559174 13.372565 31.948929 29.574572 52.155961 48.594765 20.212149 19.018146 42.204923 39.522132 65.982417 61.512982 23.7734 21.995967 46.362787 43.092447 67.756903 63.303768 21.400256 20.207227 40.272842 37.887912 56.617758 53.05024 16.344916 15.152095 27.489177 25.405623 33.438923 30.751375 17.829794 16.052604 35.958406 24.375154 54.379696 24.968671 18.431523 0.592494 37.155724-7.730055 56.176695-24.968671 4.158887-3.565199 13.965632-12.773931 29.420235-27.633361 15.454603-14.860453 33.886127-32.396851 55.278196-52.602032 21.401279-20.212344 44.138028-41.756009 68.206153-64.642253 24.079381-22.881127 46.660581-44.279483 67.76816-64.188928 21.099392-19.909445 39.22698-37.001729 54.384813-51.263547 15.157832-14.267958 24.215487-22.590508 27.192406-24.968671 8.916432-7.723915 20.804667-11.889795 35.658565-12.478196 14.863108-0.596588 27.944567 4.158716 39.232097 14.262842C955.005869 391.691169 959.761368 403.579941 959.165779 417.846876z"  horiz-adv-x="1024" />

    
    <glyph glyph-name="xx" unicode="&#58880;" d="M700.243353 742.997304c-0.035817 0.618077-0.072658 1.236154-0.146339 1.845021-0.072658 0.587378-0.170899 1.172709-0.268117 1.760087-0.121778 0.76441-0.243557 1.52575-0.414456 2.27481-0.084938 0.397043-0.206716 0.792039-0.303934 1.188058-0.2323 0.934279-0.488137 1.856277-0.791048 2.76395-0.085961 0.249687-0.183179 0.493234-0.280397 0.743944-0.364312 1.035586-0.766488 2.052752-1.217784 3.042289-0.023537 0.072655-0.048097 0.146333-0.084938 0.218988-0.061401 0.152473-0.157596 0.289596-0.231277 0.438998-0.451297 0.959861-0.93841 1.902326-1.462364 2.820232-0.183179 0.316202-0.377615 0.623193-0.573075 0.937348-0.474834 0.76748-0.961947 1.51961-1.485901 2.25025-0.279374 0.402159-0.584332 0.788969-0.875986 1.177825-0.475857 0.608867-0.95069 1.206478-1.450084 1.787716-0.376592 0.425695-0.754208 0.840134-1.144103 1.251503-0.488137 0.517793-0.987531 1.023306-1.499205 1.51347-0.413433 0.39295-0.839145 0.773619-1.265882 1.14508-0.548515 0.484024-1.108286 0.950651-1.692618 1.400906-0.403199 0.316202-0.816632 0.623193-1.230064 0.925069-0.658013 0.468674-1.315002 0.916882-1.997576 1.345648-0.365335 0.231267-0.742951 0.456395-1.108286 0.675382-0.755231 0.445138-1.535022 0.861624-2.314813 1.257643-0.328495 0.160659-0.658013 0.319272-0.986508 0.474814-0.840169 0.38988-1.692618 0.751107-2.55837 1.087774-0.317238 0.121773-0.644709 0.236384-0.974227 0.353041-0.864729 0.308015-1.728435 0.587378-2.630005 0.833995-0.377615 0.104377-0.755231 0.197498-1.132846 0.291642-0.827889 0.201591-1.656801 0.38681-2.508226 0.536212-0.499394 0.091074-1.011068 0.160659-1.511485 0.231267-0.730671 0.101307-1.461341 0.194428-2.204292 0.255827-0.658013 0.055259-1.315002 0.075725-1.973015 0.101307-0.439016 0.01228-0.865753 0.064468-1.291465 0.064468-0.20774 0-0.414456-0.027629-0.621172-0.030699-0.694853-0.01228-1.400964-0.058328-2.107074-0.106424-0.633452-0.042979-1.266905-0.079818-1.889101-0.152473-0.608892-0.069585-1.216761-0.179079-1.826676-0.279363-0.730671-0.118704-1.449061-0.234337-2.155171-0.38988-0.474834-0.106424-0.95069-0.240477-1.425524-0.36532-0.840169-0.215918-1.669081-0.441045-2.472409-0.709151-0.389896-0.127913-0.767511-0.277316-1.145127-0.416486-0.875986-0.322341-1.754019-0.661056-2.594188-1.041726-0.134059-0.055259-0.255837-0.095167-0.389896-0.151449L280.668574 617.852072l-101.011624 0L140.679667 617.852072l-26.503693 0c-27.558765 0-49.890268-22.334681-49.890268-49.888224l0-367.927697c0-27.551496 22.331503-49.889247 49.890268-49.889247l65.480977 0 0 0.779759 3.118142 0c21.954911 0 39.757075 17.801435 39.757075 39.755446s-17.802164 39.755446-39.757075 39.755446l-8.27684 0c-18.01502 7.521301-30.700444 25.249057-30.700444 45.99045L143.797809 494.690008c0 22.679535 15.140436 41.789779 35.859142 47.851844l0 0.804319 3.118142 0c3.520318 0.785899 7.162414 1.233084 10.914008 1.233084l117.832397 0 309.356092 134.939295 0-589.837786L354.895084 211.412246c-19.933798 9.207709-43.556766 0.517793-52.770993-19.408025-9.214227-19.932981-0.530094-43.554982 19.409844-52.768831l322.400711-147.547451c0.146339-0.061398 0.279374-0.109494 0.425713-0.169869 0.828912-0.37146 1.669081-0.700965 2.534833-1.017166 0.402176-0.151449 0.803328-0.311085 1.205504-0.445138 0.791048-0.261966 1.596423-0.480954 2.399751-0.694825 0.499394-0.134053 0.998788-0.274246 1.510462-0.38374 0.682573-0.151449 1.388683-0.268106 2.083537-0.38374 0.632429-0.10847 1.265882-0.218988 1.899334-0.291642 0.609915-0.072655 1.217784-0.109494 1.826676-0.151449 0.731694-0.049119 1.449061-0.098237 2.180755-0.109494 0.206716 0 0.413433-0.030699 0.633452-0.030699 0.402176 0 0.803328 0.049119 1.216761 0.061398 0.670293 0.024559 1.340586 0.049119 2.010879 0.104377 0.730671 0.055259 1.449061 0.146333 2.155171 0.243547 0.523954 0.072655 1.046885 0.146333 1.570839 0.236384 0.828912 0.147356 1.643497 0.322341 2.460129 0.523933 0.389896 0.098237 0.779791 0.194428 1.169687 0.298805 0.877009 0.243547 1.754019 0.517793 2.606468 0.822738 0.328495 0.11461 0.659036 0.236384 0.986508 0.35918 0.865753 0.334621 1.705921 0.688685 2.54609 1.078565 0.328495 0.157589 0.66927 0.317225 0.998788 0.480954 0.779791 0.38988 1.559583 0.804319 2.314813 1.249457 0.377615 0.218988 0.742951 0.450255 1.120566 0.681522 0.670293 0.426719 1.340586 0.871857 1.985295 1.334391 0.426736 0.303922 0.840169 0.620124 1.254625 0.937348 0.573075 0.445138 1.12159 0.907673 1.669081 1.38351 0.439016 0.376577 0.877009 0.772596 1.291465 1.174756 0.511674 0.474814 0.999811 0.968048 1.473621 1.473561 0.402176 0.419556 0.791048 0.846274 1.180944 1.290389 0.474834 0.560772 0.93841 1.1328 1.400964 1.718131 0.317238 0.413416 0.632429 0.828878 0.937387 1.25969 0.488137 0.688685 0.95069 1.394766 1.400964 2.119267 0.218996 0.354064 0.450273 0.706081 0.658013 1.072425 0.487114 0.852414 0.93841 1.723248 1.364123 2.612501 0.098241 0.194428 0.206716 0.37146 0.304958 0.566912 0.049121 0.103354 0.072658 0.206708 0.121778 0.311085 0.425713 0.931209 0.803328 1.888 1.144103 2.856048 0.109498 0.297782 0.2323 0.596588 0.329518 0.89437 0.303934 0.883113 0.547491 1.790786 0.779791 2.704598 0.108475 0.402159 0.218996 0.804319 0.316215 1.212618 0.170899 0.773619 0.304958 1.558495 0.426736 2.350534 0.097218 0.548492 0.194436 1.095961 0.255837 1.650593 0.084938 0.669242 0.121778 1.351787 0.170899 2.033309 0.035817 0.663102 0.084938 1.322112 0.097218 1.980097 0 0.231267 0.036841 0.450255 0.036841 0.681522L700.391738 740.2354c0 0.189312-0.02456 0.37146-0.036841 0.563842C700.352851 741.529883 700.303731 742.26257 700.243353 742.997304zM870.378049 599.683271l-0.69383-0.694825c-6.735677 4.679579-14.909159 7.441483-23.73963 7.441483-23.014076 0-41.674829-18.653849-41.674829-41.671075 0-8.830109 2.764063-17.002232 7.446904-23.743774l-0.370452-0.36839c40.085569-40.093137 64.877201-95.474468 64.877201-156.647713 0-56.55711-21.229357-108.138906-56.108131-147.290601-9.640963-7.630794-15.845522-19.415189-15.845522-32.667004 0-23.019273 18.65973-41.673122 41.674829-41.673122 9.018767 0 17.344727 2.892887 24.165343 7.764847l1.023348-1.023306c54.744008 55.137785 88.582037 131.054825 88.582037 214.888162C959.715317 468.226287 925.57233 544.481018 870.378049 599.683271z"  horiz-adv-x="1024" />

    
    <glyph glyph-name="sx" unicode="&#58885;" d="M676.345104 146.566356c-49.813517-35.343973-108.117753-53.070706-167.735968-52.261271-7.878757 0.088004-15.714534 0.503467-23.462303 1.181919-3.151912 0.305969-6.302801 0.831948-9.498717 1.224898-6.084828 0.831948-12.168633 1.662873-18.078468 2.823302-3.67689 0.700965-7.266795 1.641383-10.855677 2.494821-5.821827 1.378393-11.599651 2.7793-17.29049 4.486174-2.713919 0.853437-5.383834 1.838881-8.097754 2.75781-6.521798 2.210341-13.044619 4.507664-19.391424 7.199982-1.443944 0.590448-2.844908 1.2689-4.245871 1.925862-7.440764 3.304256-14.751563 6.762007-21.842342 10.657734-0.349985 0.176009-0.612986 0.328481-0.962971 0.503467-23.98728 13.32754-45.91763 29.982872-65.177042 49.438992-0.305981 0.306992-0.612986 0.657986-0.918967 1.006933-5.99682 6.062066-11.686636 12.4301-17.114474 19.039635-1.137963 1.423419-2.232946 2.932796-3.370909 4.376681-39.175813 49.613978-62.813108 112.403023-62.813108 180.706665l66.447017 0c1.706945 0 3.369885 0.918929 4.245871 2.538823 0.874963 1.597381 0.744997 3.501754-0.218996 4.924149L184.298858 561.183422c-0.874963 1.312902-2.352677 2.188852-4.038132 2.188852-1.662941 0-3.151912-0.874927-4.026875-2.188852L64.570197 391.616468c-0.94148-1.444908-1.093959-3.326768-0.218996-4.945639s2.538927-2.538823 4.245871-2.538823l66.447017 0c0-80.296791 24.731254-154.729014 66.720251-216.270649 0.524978-0.853437 0.874963-1.772366 1.444968-2.625804 4.37686-6.302543 9.191713-12.101619 13.875577-18.055215 1.706945-2.254344 3.369885-4.574179 5.164838-6.78452 6.871783-8.448416 14.182582-16.370853 21.66735-24.139793 0.743974-0.766456 1.400964-1.531889 2.100934-2.210341 25.213251-25.561166 53.70838-47.096644 84.743458-64.299445 0.787978-0.502443 1.575956-0.984421 2.450919-1.443885 8.929736-4.858658 18.121449-9.257851 27.445173-13.415544 2.31993-1.00591 4.551852-2.122337 6.915787-3.130294 7.966765-3.325745 16.152527-6.258541 24.381269-9.060353 3.895886-1.335415 7.747769-2.692319 11.687659-3.917216 7.222791-2.167363 14.576571-3.961218 21.973331-5.756097 4.945841-1.160429 9.805722-2.407839 14.838548-3.370771 2.05693-0.437975 4.026875-1.072425 6.083805-1.399883 7.003795-1.248434 14.007589-1.948375 21.011384-2.824325 2.537903-0.283456 5.033849-0.721431 7.528772-1.00591 12.606626-1.24741 25.125243-2.078335 37.643861-2.078335 76.645705 0 151.408449 23.723308 215.535536 69.222571 20.442402 14.530948 25.432248 43.047422 11.117654 63.773466C725.019634 156.086174 696.78546 161.098327 676.345104 146.566356M888.990705 384.130983c-0.042981 80.056314-24.599242 154.335041-66.403013 215.745692-0.612986 1.050935-1.049955 2.12336-1.706945 3.086291-5.208842 7.506974-10.854654 14.510482-16.502512 21.535479-0.655966 0.853437-1.268952 1.750877-1.968922 2.581802-38.25787 46.987151-86.276434 83.295078-140.728788 107.019409-1.488972 0.656963-2.97692 1.400906-4.464868 2.057869-8.710739 3.611248-17.596471 6.80601-26.526207 9.848299-3.238897 1.072425-6.434813 2.254344-9.717714 3.238764-7.790749 2.38635-15.71351 4.333702-23.681299 6.194072-4.419841 1.028423-8.797724 2.166339-13.262592 3.042289-2.232946 0.437975-4.289875 1.093914-6.478817 1.487887-5.951793 1.050935-11.949636 1.5104-17.902452 2.276856-4.114883 0.524956-8.185762 1.181919-12.344648 1.619894-10.023695 0.940418-19.960405 1.335415-29.896092 1.5104-1.794953 0-3.589905 0.284479-5.384858 0.284479-0.305981 0-0.612986-0.086981-0.961947-0.109494-76.514716-0.065492-151.146472-23.460318-215.185551-68.895113-20.485383-14.487969-25.475228-43.048445-11.161658-63.773466s42.590726-25.758664 63.032105-11.226692c49.462508 35.082006 107.198786 52.831252 166.379009 52.305273 8.535747-0.065492 16.896501-0.480954 25.169247-1.2689 2.581907-0.305969 5.077853-0.678452 7.615757-1.006933 6.828802-0.831948 13.569596-1.816369 20.223406-3.151783 2.932916-0.568958 5.864808-1.335415 8.710739-1.991354 6.521798-1.487887 13.044619-3.086291 19.435428-5.033643 2.012926-0.656963 3.982871-1.379417 5.995797-2.056845 7.310799-2.407839 14.444559-5.012154 21.492357-7.966439 0.700993-0.305969 1.443944-0.678452 2.144938-0.962931 42.152733-18.361183 79.140627-46.63718 107.986764-81.982176 0.174993-0.218988 0.349985-0.503467 0.524978-0.699941 40.620781-50.051953 65.089034-114.044406 65.089034-183.704952l-66.447017 0c-1.706945 0-3.369885-0.918929-4.244848-2.538823-0.874963-1.619894-0.744997-3.501754 0.218996-4.945639l111.706635-169.567977c0.831982-1.312902 2.320954-2.166339 4.027898-2.166339 1.662941 0 3.150889 0.853437 4.026875 2.166339l111.61965 169.567977c0.962971 1.444908 1.093959 3.326768 0.218996 4.945639-0.874963 1.619894-2.537903 2.538823-4.244848 2.538823L888.990705 384.135076 888.990705 384.130983z"  horiz-adv-x="1024" />

    
    <glyph glyph-name="bbchaxun" unicode="&#58967;" d="M952.571324-7.925251l-32.720533-32.914644c-12.912607-12.912078-33.858496-12.912078-46.771103 0l-131.930041 132.449591c-31.735049-18.602683-68.677916-29.325909-108.139243-29.325909-118.623445 0-221.401367 103.122659-221.401367 222.223221 0 119.055536 96.168117 215.570707 214.791562 215.570707s221.445371-103.123682 221.445371-222.224244c0-40.968064-11.381678-79.268368-31.188581-111.877043l131.229047-131.661645C960.800066 21.269675 965.484954 5.030829 952.571324-7.925251L952.571324-7.925251zM626.401622 433.764404c-82.116524 0-148.71602-66.794265-148.71602-149.257395 0-82.464153 73.209302-155.910932 155.325825-155.910932 82.139037 0 148.760024 66.881247 148.760024 149.257395C781.771452 360.316601 708.54066 433.764404 626.401622 433.764404L626.401622 433.764404zM170.095809 229.793896l0 35.453467L330.084008 265.247362c0.351008-11.994172 1.487948-23.812335 3.238897-35.453467L170.095809 229.793896 170.095809 229.793896zM170.095809 371.609809l176.534715 0c-4.093393-11.512195-7.659761-23.285333-10.286695-35.45449L170.095809 336.155319 170.095809 371.609809 170.095809 371.609809zM170.095809 442.473763l0 35.45449 242.477222 0c-10.702175-10.986215-20.507896-22.848381-29.371115-35.45449L170.095809 442.473763 170.095809 442.473763zM170.095809 690.610166l354.490861 0 0-35.45449L170.095809 655.155676 170.095809 690.610166 170.095809 690.610166zM524.587694 549.581176c-0.656989-0.26299-1.312956-0.481977-1.991435-0.743944L170.095809 548.837232l0 35.453467 354.490861 0L524.58667 549.581176 524.587694 549.581176zM595.498555 565.251064 595.498555 761.518123 99.227928 761.518123l0-602.590228L353.283311 158.927895c11.030669-25.693172 25.606217-49.592488 43.181198-70.907956L99.227928 88.019938c-19.609397 0-35.454919 15.84385-35.454919 35.453467L63.773009 796.972613c0 19.609617 15.845522 35.453467 35.454919 35.453467l496.269604 0c19.544926 0 35.433429-15.844873 35.433429-35.453467l0-230.845599c-2.975896 0.086981-5.887322 0.437975-8.863218 0.437975C613.116517 566.563966 604.252275 565.995007 595.498555 565.251064L595.498555 565.251064zM595.498555 565.251064"  horiz-adv-x="1024" />

    
    <glyph glyph-name="ding" unicode="&#58968;" d="M1024 384c0-282.763636-229.236364-512-512-512S0 101.236364 0 384 229.236364 896 512 896 1024 666.763636 1024 384zM512 802.909091c-231.377455 0-418.909091-187.531636-418.909091-418.909091s187.531636-418.909091 418.909091-418.909091 418.909091 187.531636 418.909091 418.909091S743.377455 802.909091 512 802.909091zM276.712727 120.878545l5.213091 316.043636c0 8.704-3.909818 13.032727-11.729455 13.032727l-52.130909 0c-10.845091 0-19.130182 3.351273-24.762182 10.100364C187.671273 466.757818 184.832 476.020364 184.832 487.749818c0 24.762182 11.077818 37.143273 33.233455 37.143273l101.655273 0c13.917091 0 23.924364-4.142545 30.021818-12.381091 6.050909-8.238545 9.076364-22.807273 9.076364-43.659636l-5.166545-249.576727c0-13.032727 4.561455-15.546182 13.684364-7.493818 9.076364 8.052364 23.226182 24.436364 42.356364 49.245091 7.354182 8.704 15.732364 12.986182 25.088 12.986182 9.309091 0 18.525091-4.328727 27.694545-12.986182 9.541818-8.285091 14.336-17.175273 14.336-26.717091 0-4.794182-0.651636-9.448727-1.954909-14.010182-1.256727-4.608-3.444364-9.681455-6.516364-15.313455-3.025455-5.678545-7.168-12.101818-12.427636-19.223273-5.166545-7.168-11.729455-15.313455-19.549091-24.436364-7.819636-9.541818-16.290909-18.757818-25.413818-27.694545-9.076364-8.890182-18.664727-17.687273-28.625455-26.391273-20.014545-17.361455-34.769455-28.439273-44.311273-33.233455-6.562909-3.444364-13.498182-5.632-20.852364-6.516364s-14.010182 0.325818-19.874909 3.584c-5.864727 3.211636-10.752 8.890182-14.661818 16.896C278.667636 95.976727 276.712727 107.008 276.712727 120.878545zM404.433455 584.192c0-9.588364-4.561455-18.897455-13.684364-28.020364-9.122909-9.122909-16.709818-13.684364-22.807273-13.684364s-11.170909 0.884364-15.313455 2.606545C348.485818 546.816 342.760727 550.493091 335.36 556.171636c-3.444364 3.025455-8.610909 7.400727-15.313455 13.032727C313.297455 574.836364 304.965818 582.004364 294.958545 590.708364 274.525091 608.488727 261.771636 619.147636 256.512 622.638545 251.298909 626.967273 247.854545 630.877091 246.132364 634.368 244.363636 637.858909 243.479273 641.536 243.479273 645.445818c0 9.541818 4.328727 18.664727 13.032727 27.368727 9.122909 8.704 18.245818 13.032727 27.368727 13.032727 9.122909 0 19.549091-4.142545 31.278545-12.381091C327.307636 664.762182 341.922909 653.498182 358.818909 639.581091c18.292364-13.917091 30.394182-24.855273 36.491636-32.907636S404.433455 591.127273 404.433455 584.192zM776.564364 577.675636l-44.311273 0c-6.516364 0-9.774545-3.258182-9.774545-9.774545l0-399.453091c0-27.834182-2.606545-48.872727-7.819636-63.208727-4.794182-14.336-15.639273-24.948364-32.581818-31.930182s-35.84-10.472727-56.692364-10.472727c-33.047273 0-67.118545 4.980364-102.306909 14.987636-34.304 9.588364-51.432727 24.529455-51.432727 44.962909 0 8.285091 2.839273 17.826909 8.471273 28.672 5.632 10.472727 14.754909 15.639273 27.368727 15.639273 5.632 0 11.729455-0.884364 18.245818-2.606545 37.376-10.007273 62.789818-14.987636 76.288-14.987636 14.754909 0 24.948364 2.746182 30.626909 8.145455 5.632 5.445818 8.471273 14.475636 8.471273 27.042909L641.117091 567.901091c0 6.516364-3.258182 9.774545-9.774545 9.774545L451.351273 577.675636c-11.310545 0-20.48 3.677091-27.694545 11.077818C416.488727 596.154182 412.904727 605.230545 412.904727 616.122182c0 10.845091 3.584 19.968 10.752 27.368727s16.384 11.077818 27.694545 11.077818l325.166545 0c11.264 0 20.386909-3.584 27.368727-10.752 6.935273-7.168 10.426182-16.384 10.426182-27.694545s-3.444364-20.526545-10.426182-27.694545C796.951273 581.259636 787.828364 577.675636 776.564364 577.675636z"  horiz-adv-x="1024" />

    
    <glyph glyph-name="xiala" unicode="&#58956;" d="M948.81666 618.811934c-14.653322 14.46648-38.226146 14.390755-52.731082-0.227174l-382.097724-385.581776-387.429367 383.943462c-14.654345 14.505365-38.226146 14.397918-52.772016-0.221034-14.5121-14.660908-14.397485-38.265512 0.222067-52.777017L485.789496 155.911188c0.637546-0.630357 1.457248-0.780783 2.088654-1.37737 0.153502-0.147356 0.188296-0.334621 0.335658-0.485047 7.272935-7.196912 16.788026-10.81737 26.25809-10.81737 9.582632 0 19.207221 3.693112 26.479133 11.040451L949.004956 566.036963C963.550826 580.695824 963.437234 604.301452 948.81666 618.811934L948.81666 618.811934zM948.81666 618.811934"  horiz-adv-x="1024" />

    
    <glyph glyph-name="gs" unicode="&#58937;" d="M64.085 833.248c148.353 0 295.041 0 444.432 0 0-298.936 0-596.874 0-896.964-147.338 0-294.692 0-444.432 0C64.085 233.718 64.085 531.735 64.085 833.248zM116.086 610.819c40.923 0 77.098 0 114.211 0 0 37.925 0 73.439 0 113.141-34.723 0-68.329 0.547-101.87-0.68-4.286-0.156-11.607-9.442-11.79-14.697C115.528 676.74 116.086 644.843 116.086 610.819zM344.332 608.76c33.463 0 66.039-0.696 98.518 0.731 4.991 0.221 13.352 10.008 13.661 15.719 1.458 27.106 1.63 54.394-0.077 81.471-0.381 6.135-9.817 16.426-15.511 16.72-31.559 1.644-63.255 0.788-96.591 0.788C344.332 684.704 344.332 648.603 344.332 608.76zM231.501 159.611c0 34.067 1.016 64.907-0.856 95.574-0.381 6.197-11.348 16.268-18.019 16.768-26.119 1.957-52.514 1.579-78.711 0.212-6.074-0.317-16.66-7.744-16.858-12.262-1.447-33.218-0.779-66.528-0.779-100.292C156.424 159.611 191.848 159.611 231.501 159.611zM344.725 272.712c0-39.979 0-75.975 0-111.832 38.179 0 74.144 0 112.439 0 0 33.254 0.872 64.142-0.762 94.894-0.311 5.914-10.204 15.861-16.092 16.174C409.542 273.582 378.63 272.712 344.725 272.712zM229.988 497.737c-34.926 0-68.384 0.433-101.803-0.558-4.097-0.122-11.287-7.772-11.419-12.093-0.956-33.234-0.525-66.506-0.525-98.976 40.896 0 76.884 0 113.748 0C229.988 423.728 229.988 458.883 229.988 497.737zM457.153 497.943c-36.319 0-68.042 0.429-99.729-0.453-4.864-0.135-13.617-6.165-13.722-9.68-1.043-34.184-0.624-68.412-0.624-104.076 34.696 0 64.741-1.022 94.615 0.775 6.792 0.409 18.211 10.257 18.587 16.312C458.184 431.539 457.153 462.435 457.153 497.943zM679.426 158.018c0-74.725 0-147.695 0-222.23-37.064 0-70.629 0-106.797 0 0 165.856 0 331.894 0 500.468 127.945 0 256.314 0 387.121 0 0-166.138 0-332.188 0-500.181-34.707 0-68.965 0-106.57 0 0 73.773 0 146.75 0 221.943C794.879 158.018 739.84 158.018 679.426 158.018zM571.324 500.476c0 17.363 0 32.113 0 49.126 129.613 0 257.979 0 388.59 0 0-16.024 0-31.404 0-49.126C831.004 500.476 702.623 500.476 571.324 500.476z"  horiz-adv-x="1024" />

    
    <glyph glyph-name="liebiaoa" unicode="&#58896;" d="M611.893 604.415c-101.324 0.002-202.654-0.084-303.983 0.052-33.884 0.045-39.658 5.968-39.944 39.724-0.149 17.467 0.415 34.945-0.005 52.404-0.533 22.283 11.629 31.426 32.146 32.486 5.231 0.269 10.482 0.1 15.724 0.1 199.153 0.002 398.313 0.023 597.474-0.016 38.403-0.007 45.415-7.292 45.881-45.811 1.061-87.939 0.318-78.987-77.383-78.951-89.968 0.042-179.94 0.009-269.91 0.012zM612.521 322.873c-97.773 0-195.547-0.010-293.32 0.006-47.743 0.005-51.042 3.245-51.077 49.801-0.010 14.84-0.046 29.676-0.026 44.514 0.026 19.284 10.154 28.767 28.986 29.617 5.23 0.236 10.472 0.209 15.707 0.209 199.913 0.011 399.825 0.031 599.743-0.010 40.812-0.007 46.21-5.835 46.671-46.942 0.933-82.481 1.128-77.53-76.927-77.267-89.92 0.305-179.84 0.072-269.757 0.072zM612.969 41.803c-100.464 0-200.923-0.080-301.38 0.043-38.71 0.040-43.321 4.928-43.526 44.191-0.077 13.971-0.287 27.948-0.092 41.921 0.43 30.065 6.727 36.899 37.593 36.934 205.292 0.22 410.583 0.214 615.87-0.024 29.161-0.032 36.855-8.312 37.628-37.598 0.41-15.712 0.329-31.454 0.022-47.17-0.602-30.539-8.198-38.163-39.488-38.219-102.207-0.195-204.422-0.078-306.627-0.078zM128.71 599.261c-35.688 0-63.695 27.388-63.803 62.384-0.108 34.919 27.804 62.96 63.039 63.339 35.749 0.381 64.393-26.63 64.976-61.269 0.625-37.048-26.675-64.451-64.212-64.454zM129.622 35.737c-35.19-0.429-64.084 26.948-64.894 61.519-0.804 34.038 27.833 64.010 62.025 64.918 35.846 0.95 65.498-27.52 66.194-63.555 0.662-34.171-27.807-62.441-63.325-62.882zM64.779 381.35c0.461 33.54 30.482 62.333 64.796 62.149 34.878-0.185 63.423-28.538 63.423-63.003 0.005-35.508-30.231-64.871-65.575-63.688-34.437 1.155-63.11 30.695-62.644 64.542z"  horiz-adv-x="1024" />

    
    <glyph glyph-name="msg" unicode="&#58913;" d="M926.093215 142.869151c-9.048444-16.756639 19.677961-123.392308 19.677961-123.392308s-86.757408 42.24515-107.454623 29.04757c-39.638366-25.273616-86.71238-39.921221-137.206424-39.921221-141.1238 0-255.533097 114.39847-255.533097 255.521604 0 141.124158 114.408274 255.524674 255.533097 255.524674 141.125847 0 255.533097-114.400516 255.533097-255.524674C956.643226 220.245426 945.577763 178.950927 926.093215 142.869151zM596.120751 308.659081c-23.057057 0-41.753627-18.640546-41.753627-41.639353 0-22.998807 18.69657-41.645492 41.753627-41.645492 23.06422 0 41.75465 18.647709 41.75465 41.645492C637.875401 290.018535 619.184971 308.659081 596.120751 308.659081zM803.625051 308.659081c-23.063197 0-41.75158-18.640546-41.75158-41.639353 0-22.998807 18.688383-41.645492 41.75158-41.645492 23.06422 0 41.75465 18.647709 41.75465 41.645492C845.378678 290.018535 826.689271 308.659081 803.625051 308.659081zM413.020234 265.341506c-28.714125-11.165294-59.825955-17.526165-92.491227-17.526165-50.491997 0-97.571127 14.647605-137.206424 39.921221-20.701309 13.198603-107.452577-29.046546-107.452577-29.046546s28.724359 106.635669 19.671821 123.392308C76.056256 418.163077 64.99591 459.458599 64.99591 503.340015c0 141.124158 114.407251 255.521604 255.533097 255.521604 134.510925 0 244.501405-103.991446 254.54659-235.921197C479.525582 476.320639 413.491998 378.692111 413.020234 265.341506zM239.847217 556.436304c-21.142372 0-38.275267-17.403369-38.275267-38.868239 0-21.464871 17.132894-38.870286 38.275267-38.870286 21.137256 0 38.27015 17.405415 38.27015 38.870286C278.117367 539.032936 260.984473 556.436304 239.847217 556.436304zM421.653199 556.436304c-21.137256 0-38.269127-17.403369-38.269127-38.868239 0-21.464871 17.132894-38.870286 38.269127-38.870286 21.143396 0 38.281407 17.405415 38.281407 38.870286C459.934606 539.032936 442.795571 556.436304 421.653199 556.436304z"  horiz-adv-x="1024" />

    
    <glyph glyph-name="shoucang" unicode="&#58902;" d="M912.816185 483.67821c-7.905372 9.383718-16.289672 12.507872-23.082663 14.520715-6.971054 1.867534-13.331169 2.356674-20.003406 2.379187l-230.050936 0.13303c-2.15722-0.11154-7.09488 1.323135-11.163716 4.524037-4.181405 3.091408-6.859509 7.439436-7.32718 9.530051l-66.657894 239.492536c-2.179734 7.538697-4.614281 14.34266-9.628692 21.769816-4.547764 6.693446-14.65436 17.800411-32.923189 18.234293-18.191054-0.388856-28.364168-11.518335-32.912955-18.256806-5.014411-7.471159-7.471472-14.32117-9.594922-21.858844l-66.636403-239.359506c-0.45539-2.112104-3.157032-6.460132-7.338437-9.55154-4.068836-3.201925-8.995239-4.6366-11.141202-4.524037l-230.084706-0.13303c-8.884717-0.122797-17.146215-0.700965-27.175037-4.936429-4.95915-2.213411-10.697069-5.627161-15.844515-11.908214-5.216011-6.126534-8.750659-15.643282-8.584876-24.137747 0.279374-13.631462 6.03776-21.948895 10.75233-27.718295 4.981664-5.836939 10.229398-9.950629 16.077838-13.864776l185.409376-122.180713c3.313605-1.413186 9.139531-11.718903 8.6166-18.556635 0-1.700735-0.21081-3.102664-0.534188-4.124947l-72.072434-236.201583c-2.024185-6.815219-3.536695-13.398148-3.591956-21.471011 0.111545-6.747681 0.900547-15.542998 7.717076-25.428136 6.603672-10.151197 21.258032-16.521279 31.25513-15.898085 18.957543 1.044796 26.852682 8.515954 36.236793 15.620769l181.294489 154.38109c1.47874 1.378393 5.270248 2.991124 9.51817 2.968611 4.113864 0.022513 7.672049-1.456165 9.162045-2.746554l191.09101-155.62543c9.440396-6.882757 17.222966-13.975293 35.757866-14.976086 0.4339-0.022513 0.88929-0.033769 1.345704-0.033769 9.528404 0 22.882087 5.760191 29.420265 15.409968 6.994591 9.784854 7.838854 18.724457 7.927886 25.361621-0.066518 8.651031-1.801095 15.59928-4.214152 22.948665l-81.023669 237.691517c-0.355102 1.000793-0.610939 2.445702-0.610939 4.225231-0.445157 6.437619 4.792344 15.588023 7.816341 16.877389L894.514609 417.990139c5.870954 3.913123 11.129945 8.049327 16.111609 13.886265 4.680799 5.792936 10.441231 14.086833 10.707302 27.718295C921.500326 468.067674 917.964654 477.562932 912.816185 483.67821z"  horiz-adv-x="1024" />

    
    <glyph glyph-name="xiaoxi" unicode="&#58903;" d="M939.922657 485.33699C917.894043 673.343921 708.470757 804.306648 472.111897 777.875672 235.789878 751.44572 62.047706 577.629999 84.076319 389.634324c11.64469-99.392708 75.71044-182.832072 168.403359-235.507782 4.554927-41.637306-10.768703-94.709035-82.859557-149.067061-29.457105-22.202675 119.324558-50.839899 258.165407 92.573395 39.875823-4.870938 81.538414-5.291516 124.101551-0.525979C788.221379 123.537873 961.951271 297.342338 939.922657 485.33699zM302.412977 378.480286c-33.055201 0-59.848528 26.792203-59.848528 59.846016s26.793327 59.846016 59.848528 59.846016c33.054178 0 59.848528-26.792203 59.848528-59.846016S335.466132 378.480286 302.412977 378.480286zM514.930872 378.480286c-33.054178 0-59.848528 26.792203-59.848528 59.846016s26.795374 59.846016 59.848528 59.846016c33.055201 0 59.848528-26.792203 59.848528-59.846016S547.986073 378.480286 514.930872 378.480286zM727.450813 378.480286c-33.055201 0-59.848528 26.792203-59.848528 59.846016s26.793327 59.846016 59.848528 59.846016 59.848528-26.792203 59.848528-59.846016S760.506014 378.480286 727.450813 378.480286z"  horiz-adv-x="1024" />

    
    <glyph glyph-name="xie" unicode="&#58988;" d="M15.515152 880.484848 15.515152 880.484848 15.515152 880.484848ZM766.076121 766.045091l77.575758 74.658909q0 0.961939 1.954909 1.954909l5.833697 3.878788q3.878788 2.916848 8.719515 4.840727t11.636364 3.382303 13.591273 0.961939 15.515152-4.375273 16.477091-10.674424l75.651879-74.658909q3.878788-3.878788 8.254061-9.712485t4.840727-21.348848-13.094788-28.113455l-84.371394-84.371394zM746.682182 738.893576l139.636364-140.598303-424.742788-413.106424-137.712485 138.674424zM305.462303 307.386182l139.636364-138.674424-242.439758-89.212121zM811.628606 443.143758l74.658909 64.977455 0-567.26497q-0.961939-0.961939 0-7.261091t-6.795636-13.591273-23.272727-7.261091l-805.825939 0q-0.961939 0.961939-8.719515-0.961939t-16.011636 6.299152-8.254061 25.693091l0 777.712485q-0.961939 3.878788 0.496485 8.254061t3.878788 8.719515 9.216 7.757576 16.477091 3.382303l609.931636 0-62.060606-71.773091-495.522909-0.961939 0-687.507394 710.780121-0.961939z"  horiz-adv-x="1024" />

    
    <glyph glyph-name="sms" unicode="&#58915;" d="M954.224844 703.442426l0.577145 0L70.647013 703.442426l0.571005 0L954.224844 703.442426zM512.865717 215.411327l-29.134551 27.232225-97.160877 87.660502L106.003266 64.899358l813.447587 0L639.081327 330.323497l-97.091292-89.24151L512.865717 215.411327zM64.230883 628.878197l0-513.369184 274.584776 256.685103L64.230883 628.878197zM960.548876 115.583714 960.548876 628.790192 686.226067 372.194116 960.548876 115.583714zM512.854461 290.585447l441.370383 412.856979L71.216995 703.442426 512.854461 290.585447zM512.854461 290.585447"  horiz-adv-x="1024" />

    
    <glyph glyph-name="erp" unicode="&#58881;" d="M939.843298 28.916842l-92.057649 92.050486c24.263613 37.851073 38.750559 82.595136 38.750559 130.890073 0 134.420479-108.96983 243.394403-243.397473 243.394403-134.424572 0-243.394403-108.9729-243.394403-243.394403 0-134.427642 108.96983-243.394403 243.394403-243.394403 48.302099 0 93.03593 14.483876 130.890073 38.744419l92.050486-92.053556c20.367887-20.367887 53.395094-20.367887 73.762981 0C960.211185-24.478252 960.211185 8.542816 939.843298 28.916842zM643.139759 78.002794c-96.014774 0-173.85256 77.836763-173.85256 173.85563 0 96.011704 77.836763 173.84949 173.85256 173.84949 96.018867 0 173.85563-77.836763 173.85563-173.84949C816.995389 155.839557 739.158626 78.002794 643.139759 78.002794zM177.768753 722.253864 458.419687 722.941526 460.382389 551.425174 740.488925 551.425174 513.13894 831.53171 63.466474 831.53171 63.466474-64.046433 346.08318-64.046433 346.08318 49.00025 177.768753 49.00025Z"  horiz-adv-x="1024" />

    
    <glyph glyph-name="ttqs" unicode="&#58889;" d="M146.578286 382.390857 146.578286 9.142857c0-20.187429 16.384-36.571429 36.571429-36.571429l91.008 0c20.187429 0 36.571429 16.384 36.571429 36.571429L310.729143 441.325714l-51.456 53.083429L146.578286 382.390857zM347.318857 9.142857c0-20.187429 16.384-36.571429 36.571429-36.571429l73.289143 0c20.187429 0 36.571429 16.384 36.571429 36.571429L493.750857 252.489143l-146.432 151.076571L347.318857 9.142857zM624.384 256.384l-66.742857-69.814857-27.867429 28.763429L529.773714 9.142857c0-20.187429 16.384-36.571429 36.571429-36.571429l92.123429 0c20.205714 0 36.571429 16.384 36.571429 36.571429L695.04 326.107429l-70.4-69.979429L624.384 256.384zM731.648 9.142857c0-20.187429 16.384-36.571429 36.571429-36.571429l91.574857 0c20.187429 0 36.571429 16.384 36.571429 36.571429L896.365714 526.226286l-164.717714-163.730286L731.648 9.142857zM749.366857 758.838857l0-54.601143 105.289143 0-300.251429-308.425143L306.962286 652.525714l-1.462857-1.462857-48.896 48.603429-196.937143-208.822857 55.808-55.460571 144.786286 153.526857 291.547429-302.482286 8.027429 7.990857 2.852571-2.834286 351.36 360.886857 0-113.115429 54.912 0L968.96 758.838857 749.366857 758.838857z"  horiz-adv-x="1024" />

    
    <glyph glyph-name="friends" unicode="&#58947;" d="M512 832C264.576 832 64 631.424 64 384c0-247.424 200.576-448 448-448s448 200.576 448 448C960 631.424 759.424 832 512 832zM698.112 159.872l-512 0L186.112 183.68c0 88 196.608 69.12 196.608 154.816 0 7.808 0.256 15.424 0.128 24.512C373.44 373.312 352 399.744 343.488 435.84 334.784 439.872 327.552 448.512 322.944 460.608c-6.4 17.088-6.848 40.576 5.632 55.808C328.512 516.736 328.512 516.928 328.448 517.248 326.144 538.56 319.936 595.328 354.112 632.512c19.712 21.44 49.216 38.336 87.68 39.36 38.464-1.024 67.968-17.92 87.68-39.36C563.648 595.328 557.44 538.56 555.072 517.248c0-0.256-0.064-0.512-0.128-0.768 12.48-15.232 11.968-38.784 5.568-55.808C555.968 448.512 548.672 439.872 539.968 435.84 531.456 399.744 509.824 373.312 500.48 363.072 500.352 353.984 500.224 345.408 500.224 337.6c0-84.032 197.824-65.216 197.824-153.92L698.048 159.872zM746.112 206.848c-13.056 57.664-76.032 79.552-123.712 95.808C618.88 303.872 614.784 305.28 610.496 306.816c5.888 6.4 9.664 13.888 9.664 23.424 0 5.376 0.192 10.688 0.128 16.96C613.76 354.24 598.976 372.48 593.088 397.376 592.64 397.632 592.256 398.144 591.808 398.4 586.432 401.408 581.824 406.784 578.944 414.528 574.528 426.304 574.144 442.56 582.784 453.056 582.784 453.248 582.72 453.376 582.72 453.568 581.12 468.352 576.832 507.52 600.448 533.184c3.84 4.224 8.448 8 13.376 11.52 12.48 8.896 28.16 15.104 47.168 15.616 26.56-0.704 46.912-12.352 60.544-27.136 23.616-25.664 19.328-64.896 17.728-79.616 0-0.192-0.064-0.32-0.064-0.512 8.64-10.496 8.256-26.752 3.84-38.528-3.136-8.384-8.192-14.336-14.208-17.152-5.888-24.896-20.8-43.2-27.264-50.24-0.064-6.272-0.128-12.224-0.128-17.6 0-58.048 136.576-45.056 136.576-106.24l0-16.448L746.112 206.848z"  horiz-adv-x="1024" />

    
    <glyph glyph-name="search" unicode="&#58909;" d="M543.981389 123.353678c-5.095042-1.393743-10.211573-2.612501-15.329127-3.723811-17.636682-3.853771-28.807093-21.251-24.974811-38.866193 3.331885-15.306614 16.875343-25.714661 31.898501-25.714661 2.286066 0 4.637624 0.239454 6.967692 0.73985 6.205329 1.372254 12.346189 2.851954 18.443048 4.485151 17.419741 4.703115 27.718295 22.623253 23.036669 40.041972C579.298755 117.75824 561.313126 128.035304 543.981389 123.353678zM948.890348-4.80826 758.085698 185.938062c40.028669 47.415916 68.920696 104.046704 82.935897 164.692946 37.363979 161.411203-31.202653 330.028529-170.643472 419.606707C532.789489 858.641137 352.565824 851.868897 222.030839 753.363396 90.058109 653.834588 34.18559 480.949053 83.003436 323.130677c48.447409-156.751067 196.989513-270.324752 361.16569-276.181133 0.391926-0.021489 0.783853-0.021489 1.175779-0.021489 17.506722 0 31.986505 13.869892 32.639375 31.485085 0.63138 18.028609-13.456477 33.183773-31.485085 33.815153-136.871297 4.877077-260.700557 99.55132-301.112965 230.216265-40.695864 131.580804 5.922896 275.767717 115.968222 358.792643 107.10639 80.781838 260.766049 86.573751 373.72882 14.043854 114.444519-73.53069 172.995029-217.413682 142.315286-349.929788-19.051915-82.284051-70.895677-155.771763-142.315286-201.627137-15.176654-9.732665-19.574824-29.938869-9.819646-45.115524 9.755178-15.198144 29.982872-19.553335 45.115524-9.819646 14.582113 9.361205 28.467355 19.705807 41.612747 30.880311l190.759625-190.701297c6.380314-6.357801 14.719236-9.558703 23.080671-9.558703 8.361435 0 16.72287 3.200902 23.102161 9.602705C961.671443-38.230464 961.671443-17.567865 948.890348-4.80826z"  horiz-adv-x="1024" />

    
    <glyph glyph-name="notice" unicode="&#58906;" d="M527.482111 763.076618c-10.612709 5.118578-23.222911 3.712555-32.448016-3.626597-0.448208-0.357134-45.418422-36.097126-95.089705-72.685439-86.399789-63.640436-111.551632-74.239841-116.653837-75.922157L148.299069 610.842425c-25.285896 0-47.489594-10.489912-62.517869-29.537733-12.958126-16.423041-19.807115-37.909401-19.807115-62.136176l0-269.913383c0-50.54928 41.067324-91.674932 91.547019-91.674932l37.931914 0c16.954137 0 30.699186 13.745049 30.699186 30.699186s-13.745049 30.699186-30.699186 30.699186L157.521105 218.978573c-16.623609 0-30.148647 13.58132-30.148647 30.27656L127.372457 519.168516c0 11.30651 2.718925 30.275537 20.926612 30.275537l137.040143 0c15.71082 0 39.8588 6.452969 145.147798 83.573417 18.768459 13.748119 37.098943 27.561729 52.959166 39.679721l0-572.680011c-12.789281 10.79895-27.043936 22.662139-41.631166 34.476209-96.252181 77.961606-120.063493 84.485183-136.203078 84.485183-0.001023 0 0 0 0 0-16.953114 0-30.699186-13.746072-30.699186-30.699186 0-16.087397 12.374842-29.284977 28.123524-30.592762 4.475941-1.558495 27.750017-11.866259 105.70753-75.43404 44.594661-36.362162 84.619236-71.858608 85.019349-72.212672 5.730515-5.086855 13.013385-7.742335 20.387329-7.741311 4.25593 0 8.544607 0.88516 12.57848 2.698458 11.023054 4.954849 18.114566 15.915481 18.114566 28.000728l0 702.428074C544.845571 747.211279 538.09789 757.955994 527.482111 763.076618zM765.082554 710.755995c-14.971993 7.957229-33.558303 2.26867-41.515532-12.703323-7.955182-14.971993-2.26867-33.558303 12.703323-41.514509 101.026928-53.685713 163.785274-157.724231 163.785274-271.514857 0-113.771183-62.769602-217.808678-163.812903-271.513834-14.97097-7.956206-20.657482-26.543539-12.700253-41.515532 5.51869-10.381441 16.144702-16.297175 27.136034-16.297175 4.858658 0 9.790994 1.157359 14.381545 3.597945 121.141034 64.386426 196.394972 189.199083 196.394972 325.729619C961.45399 521.575332 886.208239 646.389012 765.082554 710.755995zM768.958838 270.820288c21.187555 34.156938 32.386618 73.647347 32.386618 114.203018 0 40.554648-11.20418 80.047104-32.401967 114.207112-20.662599 33.299407-49.874921 60.162218-84.47802 77.685313-15.123442 7.659447-33.596166 1.608637-41.256636-13.517875-7.659447-15.125489-1.607614-33.597189 13.517875-41.256636 51.332109-25.996071 83.220377-78.536704 83.220377-137.117914 0-58.588373-31.878035-111.127983-83.195817-137.116891-15.124466-7.66047-21.176298-26.13217-13.516852-41.257659 5.409197-10.680247 16.2061-16.835434 27.411303-16.835434 4.66423 0 9.401114 1.067308 13.846356 3.318582C719.093127 210.653977 748.301356 237.518834 768.958838 270.820288z"  horiz-adv-x="1024" />

    
    <glyph glyph-name="gengduoa" unicode="&#58897;" d="M511.998 652.926c49.504 0 89.644 40.137 89.644 89.642s-40.139 89.642-89.644 89.642c-49.502 0-89.641-40.137-89.641-89.642s40.137-89.642 89.641-89.642zM511.998 473.642c-49.502 0-89.641-40.138-89.641-89.643s40.138-89.642 89.641-89.642c49.504 0 89.644 40.137 89.644 89.642s-40.139 89.643-89.644 89.643zM511.998 115.075c-49.502 0-89.641-40.094-89.641-89.643 0-49.503 40.138-89.642 89.641-89.642 49.504 0 89.644 40.138 89.644 89.642-0.001 49.548-40.139 89.643-89.644 89.643z"  horiz-adv-x="1024" />

    
    <glyph glyph-name="hetong" unicode="&#58931;" d="M575.760674 178.337967 211.635583 178.337967c-6.643304 0-11.985986-5.359055-11.985986-11.968589 0-6.626931 5.342682-11.969613 11.985986-11.969613l364.126114 0c6.592139 0 11.968589 5.343705 11.968589 11.969613C587.730287 172.978912 582.353836 178.337967 575.760674 178.337967zM575.760674 277.448242 211.635583 277.448242c-6.643304 0-11.985986-5.376451-11.985986-11.987009 0-6.626931 5.342682-11.985986 11.985986-11.985986l364.126114 0c6.592139 0 11.968589 5.359055 11.968589 11.985986C587.730287 272.071791 582.353836 277.448242 575.760674 277.448242zM575.760674 376.506329 211.635583 376.506329c-6.643304 0-11.985986-5.359055-11.985986-11.968589 0-6.626931 5.342682-11.987009 11.985986-11.987009l364.126114 0c6.592139 0 11.968589 5.360078 11.968589 11.987009C587.730287 371.146251 582.353836 376.506329 575.760674 376.506329zM211.635583 449.348334l166.541037 0c6.626931 0 11.985986 5.360078 11.985986 11.968589 0 6.626931-5.360078 11.969613-11.985986 11.969613L211.635583 473.286536c-6.643304 0-11.985986-5.342682-11.985986-11.969613C199.649598 454.708412 204.992279 449.348334 211.635583 449.348334zM586.155419 803.730527c-5.600555 5.513574-13.151531 8.613168-21.026896 8.613168L106.345562 812.343695c-16.541745 0-29.949103-13.389962-29.949103-29.931706l0-799.551088c0-16.559141 13.407358-29.950126 29.949103-29.950126l574.706157 0c16.541745 0 29.931706 13.390985 29.931706 29.950126L710.983425 668.149619c0 8.029884-3.201925 15.70161-8.903787 21.352307L586.155419 803.730527zM136.276245 12.80898 136.276245 752.446513l397.687488 0 0-97.602945c0-9.91379 8.04728-17.978467 17.978467-17.978467l99.160417 0 0-624.056122L136.276245 12.80898zM933.259858 773.781424 797.644157 773.781424c-9.91379 0-17.962094-8.04728-17.962094-17.962094l0-615.459327c0-2.432399 0.496304-4.828982 1.437745-7.055696l67.808362-159.554926c2.826372-6.67605 9.332553-10.991332 16.540721-10.991332 7.191796 0 13.699 4.315282 16.524348 10.991332l67.824735 159.554926c0.924045 2.226714 1.421372 4.623297 1.421372 7.055696L951.239348 755.81933C951.239348 765.734144 943.208441 773.781424 933.259858 773.781424zM915.297764 143.989671l-26.386974-62.123896-46.866401 0-26.421766 62.123896L815.622624 737.839841l43.51098 0-0.051165-0.324388 0-564.519144c0-6.609535 5.359055-11.985986 11.968589-11.985986s11.968589 5.376451 11.968589 11.985986L883.019617 737.515453l-0.051165 0.324388 32.329313 0L915.297764 143.989671z"  horiz-adv-x="1024" />

    
    <glyph glyph-name="qiye" unicode="&#58917;" d="M183.466667 676.266667l147.2 0 0-108.8L183.466667 567.466667 183.466667 676.266667zM403.2 676.266667l147.2 0 0-108.8-147.2 0L403.2 676.266667 403.2 676.266667zM183.466667 492.8l147.2 0L330.666667 384 183.466667 384 183.466667 492.8zM403.2 492.8l147.2 0L550.4 384l-147.2 0L403.2 492.8 403.2 492.8zM768 492.8l72.533333 0L840.533333 384 768 384 768 492.8zM768 311.466667l72.533333 0 0-108.8L768 202.666667 768 311.466667zM183.466667 311.466667l147.2 0 0-108.8L183.466667 202.666667 183.466667 311.466667zM403.2 311.466667l147.2 0 0-108.8-147.2 0L403.2 311.466667 403.2 311.466667zM987.733333-19.2 987.733333 640 695.466667 640 695.466667 859.733333 36.266667 859.733333l0-876.8L0-17.066667l0-72.533333 1024 0 0 72.533333L987.733333-17.066667zM108.8-19.2 108.8 787.2l512 0 0-804.266667L108.8-17.066667zM695.466667-19.2 695.466667 567.466667l219.733333 0 0-584.533333L695.466667-17.066667z"  horiz-adv-x="1024" />

    
    <glyph glyph-name="xiasanjiao" unicode="&#58910;" d="M1024 896 1024-128 0-128Z"  horiz-adv-x="1024" />

    
    <glyph glyph-name="xsqk" unicode="&#58983;" d="M911.296 312.96 159.104 312.96l0-191.936 752.192 0c21.248 0 38.464 17.216 38.464 38.4l0 115.2C949.76 295.616 932.544 312.96 911.296 312.96L911.296 312.96zM679.744 389.632l0 115.2c0 21.184-17.28 38.4-38.464 38.4L159.104 543.232l0-192 482.176 0C662.528 351.232 679.744 368.448 679.744 389.632L679.744 389.632zM412.032 620.032l0 115.2c0 21.248-17.024 38.4-38.272 38.4L159.104 773.632l0-192 214.656 0C395.072 581.568 412.032 598.784 412.032 620.032L412.032 620.032zM115.776 773.568 44.032 773.568l0-779.2 938.752 0 0 77.376L115.776 71.744 115.776 773.568zM82.368 773.568"  horiz-adv-x="1024" />

    
    <glyph glyph-name="select" unicode="&#58922;" d="M513.831206-57.71319c-245.858524 0-445.154569 199.295022-445.154569 445.154569 0 245.858524 199.296045 445.154569 445.154569 445.154569 245.834988 0 445.154569-199.296045 445.154569-445.154569C958.985776 141.580808 759.666194-57.71319 513.831206-57.71319zM513.831206 783.13342c-218.543412 0-395.692041-177.148629-395.692041-395.692041 0-218.543412 177.148629-395.694087 395.692041-395.694087s395.694087 177.150676 395.694087 395.694087C909.525294 605.98479 732.374618 783.13342 513.831206 783.13342zM238.290663 426.662659l34.971489 34.970466 180.843788-180.867324 300.295344 300.271808 34.972513-34.971489L454.104917 210.822822 238.290663 426.662659z"  horiz-adv-x="1024" />

    
    <glyph glyph-name="rarrow" unicode="&#58918;" d="M267.354606 823.994036c-13.515828-12.812817-13.515828-33.603329 0-46.417169l414.889265-393.579937-414.889265-393.565611c-13.515828-12.821003-13.515828-33.604352 0-46.425356 13.508665-12.81998 35.418674-12.81998 48.927339 0l432.159604 410.009118c0 0 18.33867 16.991999 18.33867 29.981848 0 11.971659-18.33867 29.989011-18.33867 29.989011L316.282968 823.994036C302.77328 836.815039 280.863271 836.815039 267.354606 823.994036z"  horiz-adv-x="1024" />

    
    <glyph glyph-name="srfx" unicode="&#58890;" d="M443.638541 660.090059l0-26.960025 36.773532 0 0-10.819416-36.773532 0 0-26.561959 36.773532 0 0-28.758997 29.635971 0L510.048043 595.748658l36.930097 0 0 26.561959-36.930097 0L510.048043 633.130034l36.930097 0 0 26.960025-25.931602 0 34.531468 66.442248-33.766035 0-22.360264-45.529963c-2.559289-5.481851-4.532223-9.075703-5.92392-13.898545-1.167592 4.454452-3.140527 8.05342-5.91778 13.898545l-21.924335 45.529963-33.766035 0 34.095539-66.442248L443.638541 660.090059zM795.934213 833.076902 197.022771 833.076902c-17.286712 0-31.31624-13.993712-31.31624-31.298843l0-203.196889 45.23832 0c21.313422 0 38.581714-17.287735 38.581714-38.581714 0-21.331841-17.268292-38.617529-38.581714-38.617529l-45.23832 0 0-98.208742 45.23832 0c21.313422 0 38.581714-17.249873 38.581714-38.58069 0-21.331841-17.268292-38.617529-38.581714-38.617529l-45.23832 0 0-98.190323 45.23832 0c21.313422 0 38.581714-17.268292 38.581714-38.59911 0-21.331841-17.268292-38.581714-38.581714-38.581714l-45.23832 0 0-204.397227c0-17.286712 14.029528-31.280424 31.31624-31.280424l598.911442 0c17.304108 0 31.317263 13.994736 31.317263 31.280424L827.251475 801.778058C827.250452 819.08319 813.23832 833.076902 795.934213 833.076902zM400.132678 749.03788c53.292764 53.29174 139.401933 53.29174 192.693674 0 53.292764-53.292764 53.555753-139.659807 0.26299-192.951547-53.292764-53.292764-139.925866-53.292764-193.21863 0C346.576925 609.378074 346.838891 695.744094 400.132678 749.03788zM343.297228 472.784092l347.474876 0 0-59.566654L343.297228 413.217439 343.297228 472.784092zM343.297228 393.360182l407.04153 0 0-59.566654L343.297228 333.793528 343.297228 393.360182zM343.297228 313.938318l327.618643 0 0-59.567677L343.297228 254.370641 343.297228 313.938318zM343.297228 155.093567l367.330086 0 0-59.567677L343.297228 95.525889 343.297228 155.093567zM780.122085 16.103002 343.297228 16.103002l0 59.566654 436.824857 0L780.122085 16.103002zM809.906435 174.948777 343.297228 174.948777l0 59.566654 466.608184 0L809.905412 174.948777z"  horiz-adv-x="1024" />

    
    <glyph glyph-name="i" unicode="&#58919;" d="M439.327448-21.258927c-24.148115 0-44.980558 8.657586-60.242879 25.036387-10.11075 10.838356-22.178156 30.269826-22.178156 61.207903 0 59.1878 37.622634 193.822468 71.207108 304.752134-15.71055-6.734701-32.817981-14.190868-48.63189-21.194711L202.435026 270.126141l130.162606 143.358772c39.674461 43.696247 75.555344 74.301734 109.694476 93.566397 36.571648 20.635959 68.2097 30.666888 96.721402 30.666888l1.030519 0 1.028472-0.052191c1.117504-0.056285 2.282082-0.089032 3.475315-0.125873 12.881996-0.393992 36.859211-1.126714 54.837516-20.518273 11.690811-12.60876 17.254793-29.243401 16.546632-49.458761-0.035817-8.786528-1.163555-24.879814-37.098676-145.172158-28.517842-95.774798-42.681079-150.884527-49.608171-182.556349 18.087805 7.987288 39.14641 17.637528 57.995591 26.560163l234.344267 110.922503L632.793788 99.593192c-52.719171-49.633755-90.968098-80.972987-116.930622-95.808569C486.372114-13.066968 461.33675-21.258927 439.327448-21.258927zM576.715965 577.45099c-25.343394 0-47.805019 9.523344-64.956453 27.539514-16.617243 17.431834-25.410935 40.629252-25.410935 67.065589 0 31.251224 10.825052 59.522437 31.303415 81.756877 21.342074 23.186161 48.606306 35.44698 78.837245 35.44698 25.580812 0 48.160123-9.268529 65.294161-26.801675 16.876152-17.309031 25.779343-40.011145 25.779343-65.685082 0-31.131491-10.834262-58.817345-32.202944-82.286975C627.487691 583.874591 597.208655 577.45099 576.715965 577.45099z"  horiz-adv-x="1024" />

    
    <glyph glyph-name="qq" unicode="&#58948;" d="M511.999998 896C229.232866 896 0.021487 666.779412 0.021487 384s229.211379-512 511.978511-512 511.978511 229.220588 511.978511 512S794.76713 896 511.999998 896zM793.886063 224.426655c-13.223163-12.342096-35.924187 1.102101-57.744145 31.296797-9.476839-25.566282-21.818935-49.149397-36.144198-70.309322 30.854728-11.019984 50.691519-28.211529 50.691519-47.608298 0-33.500998-59.287291-60.611449-132.457778-60.611449-43.417859 0-81.767282 9.476839-106.010429 24.24417-24.023136-14.767332-62.59257-24.24417-106.010429-24.24417-73.17151 0-132.457778 27.109428-132.457778 60.611449 0 19.174712 19.835767 36.586267 50.691519 47.608298-14.546298 21.158902-26.66736 44.742017-36.144198 70.309322-21.818935-29.974685-44.518936-43.639916-57.744145-31.296797-18.072611 16.97051-11.239995 76.921927 15.647375 133.785006 6.170536 13.004175 12.783141 24.685215 19.614733 34.82311 3.746324 165.30386 112.62201 297.986765 246.180865 297.986765l0.441045 0c133.558855 0 242.434541-132.462894 246.180865-297.986765 6.832615-10.138918 13.444197-21.819958 19.614733-34.82311C804.906048 301.347558 811.958674 241.397165 793.886063 224.426655z"  horiz-adv-x="1024" />

    
    <glyph glyph-name="fx" unicode="&#58938;" d="M836.061867 827.8016c-75.400533 0-136.533333-61.149867-136.533333-136.533333 0-13.090133 1.9456-25.719467 5.376-37.700267l-398.8992-167.304533c-23.6032 40.891733-67.669333 68.471467-118.237867 68.471467-75.383467 0-136.533333-61.149867-136.533333-136.618667 0-75.656533 61.149867-136.789333 136.533333-136.789333 39.492267 0 75.008 16.878933 99.925333 43.7248l257.109333-184.849067c-10.001067-19.012267-15.7184-40.6528-15.7184-63.6416 0-75.4176 60.893867-136.5504 136.277333-136.5504s136.533333 61.1328 136.533333 136.5504c0 75.383467-61.149867 136.516267-136.533333 136.516267-40.106667 0-76.066133-17.425067-100.9664-44.9536l-256.682667 184.541867c10.564267 19.421867 16.571733 41.728 16.571733 65.450667 0 12.7488-1.860267 25.002667-5.102933 36.6592l399.2064 167.441067c23.722667-40.328533 67.464533-67.498667 117.6576-67.498667 75.400533 0 136.533333 61.1328 136.533333 136.5504C972.5952 766.651733 911.4624 827.8016 836.061867 827.8016zM665.3952 178.926933c56.4736 0 102.4-45.9264 102.4-102.382933 0-56.4736-45.9264-102.417067-102.4-102.417067s-102.314667 45.943467-102.314667 102.417067C563.080533 133.000533 608.938667 178.926933 665.3952 178.926933zM187.784533 315.460267c-56.4736 0-102.4 45.9264-102.4 102.656 0 56.541867 45.9264 102.485333 102.4 102.485333s102.4-45.9264 102.4-102.485333C290.184533 361.403733 244.258133 315.460267 187.784533 315.460267zM836.061867 588.8512c-56.4736 0-102.4 45.943467-102.4 102.417067s45.9264 102.4 102.4 102.4 102.4-45.9264 102.4-102.4S892.535467 588.8512 836.061867 588.8512z"  horiz-adv-x="1024" />

    
    <glyph glyph-name="seta" unicode="&#58951;" d="M644.057-20.882c-0.001 0-0.001 0-0.003 0-15.804 0.001-31.163 6.537-41.085 17.482-13.518 14.82-56.346 53.357-91.403 53.357-34.814 0-78.304-38.76-90.795-52.338-9.898-10.76-25.151-17.183-40.802-17.183-7.454 0-14.489 1.431-20.91 4.253l-1.124 0.493-106.559 59.586-1.058 0.74c-19.4 13.58-26.782 40.14-17.171 61.782 0.073 0.168 9.828 22.674 9.828 43.197 0 62.283-50.671 112.955-112.954 112.955h-3.776c-0.229-0.005-0.458-0.008-0.687-0.008-17.841 0-32.367 15.848-37.008 40.375-0.371 1.963-9.094 48.488-9.094 85.144 0 36.655 8.721 83.181 9.092 85.144 4.699 24.84 19.542 40.796 37.696 40.367h3.777c62.284 0 112.954 50.671 112.954 112.955 0 20.518-9.75 43.020-9.849 43.245-9.6 21.621-2.169 48.178 17.31 61.716l1.104 0.767 112.459 61.769 1.17 0.498c6.332 2.699 13.268 4.069 20.616 4.069 15.614 0 30.899-6.284 40.888-16.811 13.31-13.937 55.382-50.182 89.434-50.182 33.732 0 75.547 35.529 88.812 49.22 9.932 10.314 25.108 16.489 40.57 16.489 7.496 0 14.561-1.418 20.995-4.215l1.139-0.495 108.615-60.344 1.073-0.749c19.432-13.563 26.833-40.123 17.214-61.781-0.072-0.166-9.827-22.673-9.827-43.195 0-62.284 50.671-112.955 112.954-112.955h3.776c18.13 0.403 32.995-15.526 37.696-40.365 0.37-1.964 9.093-48.489 9.093-85.145 0-36.656-8.723-83.181-9.094-85.144-4.701-24.841-19.562-40.738-37.696-40.366h-3.775c-62.283 0-112.954-50.672-112.954-112.955 0-20.518 9.749-43.019 9.848-43.244 9.595-21.607 2.182-48.166-17.269-61.719l-1.088-0.758-110.449-61.045-1.153-0.497c-6.319-2.726-13.228-4.107-20.531-4.107zM640.702 31.154c0.493-0.323 1.887-0.872 3.353-0.872 0.060 0 0.116 0.001 0.167 0.003l103.192 57.035c-2.49 5.787-13.882 33.869-13.882 63.165 0 87.607 69.004 159.402 155.512 163.897 1.245 6.874 8.006 45.547 8.006 74.568 0 29.015-6.758 67.675-8.005 74.568-86.508 4.494-155.513 76.29-155.513 163.897 0 29.335 11.425 57.458 13.896 63.197l-101.517 56.403c-0.118 0.008-0.259 0.014-0.424 0.014-1.73 0-3.348-0.63-3.884-0.991-1.703-1.751-16.42-16.674-37.556-31.543-31.289-22.012-60.875-33.174-87.941-33.174-27.329 0-57.154 11.381-88.644 33.827-21.266 15.158-36.050 30.366-37.757 32.148-0.541 0.369-2.176 1.018-3.92 1.018-0.139 0-0.26-0.004-0.363-0.011l-105.15-57.754c2.518-5.859 13.869-33.893 13.869-63.133 0-87.607-69.006-159.402-155.514-163.897-1.246-6.881-8.004-45.55-8.004-74.568 0-29.015 6.758-67.675 8.006-74.568 86.508-4.494 155.512-76.29 155.512-163.897 0-29.391-11.469-57.564-13.912-63.231l99.52-55.649c0.065-0.003 0.139-0.005 0.22-0.005 1.455 0 2.835 0.533 3.324 0.849 1.86 2 16.727 17.732 38.136 33.423 31.914 23.389 62.241 35.249 90.138 35.249 28.163 0 58.72-12.086 90.821-35.922 21.532-15.99 36.456-32.019 38.315-34.046zM511.933 239.094c-82.945 0-150.426 67.481-150.426 150.426s67.481 150.426 150.426 150.426c82.945 0 150.426-67.481 150.426-150.426 0-82.944-67.481-150.426-150.426-150.426zM511.933 488.78c-54.733 0-99.261-44.528-99.261-99.261 0-54.733 44.528-99.261 99.261-99.261 54.733 0 99.261 44.528 99.261 99.261-0 54.733-44.527 99.261-99.261 99.261z"  horiz-adv-x="1024" />

    
    <glyph glyph-name="haoyou" unicode="&#58936;" d="M545.280987 322.250634c18.574031 10.393721 35.831067 23.407106 51.294247 38.871309 44.059472 44.059472 68.324108 102.639658 68.324108 164.948773s-24.264637 120.890324-68.324108 164.949796c-44.060495 44.059472-102.640682 68.324108-164.949796 68.324108s-120.890324-24.264637-164.949796-68.324108c-44.060495-44.059472-68.325132-102.639658-68.325132-164.949796s24.264637-120.890324 68.325132-164.948773c15.46318-15.46318 32.720216-28.477588 51.294247-38.870286C169.189354 277.989571 55.304583 149.010011 36.046984-11.815861c-1.680269-14.028505 8.330736-26.762527 22.360264-28.442796 14.031575-1.684362 26.762527 8.330736 28.442796 22.35924 20.85498 174.165692 169.07679 305.503972 344.775394 305.503972 175.698604 0 323.920414-131.338281 344.776418-305.503972 1.556449-12.995989 12.598946-22.543436 25.368784-22.543436 1.014096 0.001023 2.040473 0.061398 3.074012 0.185218 14.028505 1.680269 24.038486 14.414291 22.35924 28.442796C807.945269 149.010011 694.060499 277.989571 545.280987 322.250634zM249.51582 526.070716c0 100.414991 81.693604 182.108594 182.108594 182.108594 100.414991 0 182.108594-81.693604 182.108594-182.108594s-81.693604-182.108594-182.108594-182.108594C331.209424 343.962122 249.51582 425.655725 249.51582 526.070716zM989.376435-11.815861c-10.007935 83.58672-41.965787 163.508981-92.416829 231.130078-42.289152 56.68093-96.593965 103.513562-158.470221 136.967488 21.376866 18.656919 39.618323 40.839127 53.704133 65.554018 21.61018 37.918611 33.033347 81.155345 33.033347 125.033691 0 48.045249-13.537318 94.798063-39.149649 135.203308-24.908296 39.294958-60.07933 70.951959-101.709473 91.548042-12.660344 6.264681-28.008914 1.079588-34.273595-11.585873-6.265704-12.663414-1.078565-28.008914 11.584849-34.274618 33.223682-16.436344 61.295018-41.707914 81.182974-73.081459 20.409842-32.199353 31.198559-69.480444 31.198559-107.810425 0-35.010375-9.102309-69.485561-26.321482-99.6997-16.717753-29.334095-40.744983-54.229089-69.483514-71.993684-12.018731-7.429203-15.739473-23.194258-8.31027-35.211966 1.200338-1.941212 2.618641-3.664459 4.202719-5.161556 2.587941-3.87833 6.261611-7.099698 10.833743-9.141194 67.484997-30.128181 126.605489-77.483722 170.966836-136.943952 45.107337-60.457954 73.678046-131.905192 82.624812-206.617801 1.556449-12.995989 12.598946-22.543436 25.368784-22.543436 1.014096 0 2.040473 0.061398 3.074012 0.185218C981.045699-38.578388 991.05568-25.844366 989.376435-11.815861z"  horiz-adv-x="1024" />

    
    <glyph glyph-name="selectcur" unicode="&#58923;" d="M512.083399 831.809025c-247.145843 0-447.485661-200.340841-447.485661-447.488731 0-247.148913 200.339818-447.486684 447.485661-447.486684 247.125377 0 447.489754 200.337771 447.489754 447.486684C959.573153 631.468185 759.208776 831.809025 512.083399 831.809025zM452.045001 206.776669 235.098971 423.748283l35.154661 35.154661 181.791369-181.815929L753.91419 578.931644l35.154661-35.154661L452.045001 206.776669z"  horiz-adv-x="1024" />

    
    <glyph glyph-name="qysl" unicode="&#58891;" d="M920.971 319.955c7.795-14.244 16.039-27.984 25.461-39.987l0-54.344c78.851-45.034 138.971-100.892 201.726-147.102l0-87.207 168.862 0 0 60.568c-55.072 44.586-101.284 101.957-184.957 133.98l0 91.3c43.744 54.568 72.513 139.252 72.513 203.016 0 101.957-73.58 184.621-164.263 184.621-25.293 0-48.959-6.954-70.439-18.451 3.253-21.817 4.879-44.361 4.879-67.466-0.056-78.515-18.788-174.638-53.782-258.929l0 0zM83.333 53.117l0-61.802 168.694 0 0 88.945c62.867 47.501 121.137 104.368 200.437 149.514l0 38.36c10.039 12.338 19.068 26.639 27.424 41.5-37.462 84.516-57.708 182.659-57.708 263.247 0 25.293 2.187 49.913 6.056 73.748-20.693 10.319-43.463 16.32-67.522 16.32-92.031 0-166.675-83.843-166.675-187.313 0-64.326 28.882-149.626 72.85-205.035l0-84.851c-83.113-31.518-129.83-88.217-183.555-132.633l0 0zM923.55 564.247c0 148.954-82.272 269.753-223.99 269.753-141.774 0-226.29-125.623-226.29-274.577 0-106.388 43.351-250.013 119.678-323.48l0-3.141c-133.811-37.126-206.213-113.902-286.914-173.461l0-125.343 788.173 0 0 123.772c-81.038 58.493-157.759 134.372-288.317 172.62l0 6.617c75.598 75.094 117.659 220.906 117.659 327.237l0 0z"  horiz-adv-x="1404" />

    
    <glyph glyph-name="delete" unicode="&#58928;" d="M482.656 579.328c0 17.6 14.4 32 32 32l0 0c17.6 0 32-14.4 32-32l0-485.344c0-17.6-14.4-32-32-32l0 0c-17.6 0-32 14.4-32 32L482.656 579.328zM332 579.328c0 17.6 14.4 32 32 32l0 0c17.6 0 32-14.4 32-32l0-485.344c0-17.6-14.4-32-32-32l0 0c-17.6 0-32 14.4-32 32L332 579.328zM633.344 579.328c0 17.6 14.4 32 32 32l0 0c17.6 0 32-14.4 32-32l0-485.344c0-17.6-14.4-32-32-32l0 0c-17.6 0-32 14.4-32 32L633.344 579.328zM898.656 736.672l-125.952 0-46.016 0 0 40.224c0 31.328-28.096 55.776-64 55.776l-296 0c-35.904 0-64-24.512-64-55.776l0-40.224-46.016 0-131.328 0c-17.664 0-32-14.304-32-32s14.336-32 32-32l67.328 0 0-674.912c0-34.432 28.704-62.432 64-62.432l516 0c35.296 0 64 28 64 62.432l0 674.912 61.984 0c17.664 0 32 14.304 32 32S916.32 736.672 898.656 736.672zM366.656 768.672l296 0 0-32-296 0L366.656 768.672zM739.008-0.768c0 0-414.016-1.376-449.024-1.376s-33.312 36.128-33.312 36.128 0 570.976 0 608 31.328 30.688 31.328 30.688l78.688 0 296 0 72.32 0c0 0 37.728 2.272 37.728-30.688s0.512-579.968 0.512-610.976S739.008-0.768 739.008-0.768z"  horiz-adv-x="1024" />

    
    <glyph glyph-name="zixun" unicode="&#58907;" d="M895.712 671.744l-63.936 0 0-62.848 63.936 0 0-408.512-63.936 0 0-0.384c-11.936 1.536-23.488-2.912-29.088-12.832l-53.632-93.952-53.312 93.952c-4.8 8.448-14.208 12.48-24.416 12.544l0 0.672L512 200.384l0-0.16-7.712 0c-17.696 0-32-14.016-32-31.328s14.304-31.328 32-31.328L512 137.568l56.288 0 78.848 0 74.24-130.848c4.224-7.456 12.064-11.584 20.832-12.576 13.152-3.136 26.56 1.12 32.768 11.968l74.976 131.424 45.76 0c35.296 0 63.872 28.128 63.872 62.848L959.584 608.896C959.584 643.616 931.008 671.744 895.712 671.744zM735.968 231.84c35.296 0 63.872 28.128 63.872 62.848L799.84 703.168c0 34.688-28.608 62.848-63.872 62.848L128.928 766.016c-35.296 0-63.904-28.128-63.904-62.848l0-408.48c0-34.176 27.808-61.856 62.336-62.688l41.44 0 100.16-133.568c6.08-8.128 16-11.328 26.176-10.528 10.432-0.544 20.448 3.264 25.952 11.84l84.608 132.096L735.968 231.84zM359.968 282.144l-66.624-103.936-79.04 105.376c-5.088 6.784-12.896 10.432-21.312 11.008l0 0.096L128.928 294.688 128.928 703.168l607.04 0 0-408.48L384.992 294.688l0-0.608C374.912 294.336 365.312 290.56 359.968 282.144zM272.672 498.912m-48 0a1.5 1.5 0 1 0 96 0 1.5 1.5 0 1 0-96 0ZM432.448 498.912m-48 0a1.5 1.5 0 1 0 96 0 1.5 1.5 0 1 0-96 0ZM592.192 498.912m-48 0a1.5 1.5 0 1 0 96 0 1.5 1.5 0 1 0-96 0Z"  horiz-adv-x="1024" />

    
    <glyph glyph-name="activity" unicode="&#58943;" d="M781.066597 434.613748c41.399899 103.482863 137.977491 68.988234 137.977491 68.988234C850.055854 427.716664 781.066597 434.613748 781.066597 434.613748zM677.583734 589.838042c0 0 55.19509 124.183324 120.729665 120.729665C798.314423 710.56873 777.613962 593.290677 677.583734 589.838042zM797.219485 193.153394C524.549316 227.184465 318.054311 413.42517 301.093011 658.827299c8.286734 34.494629 27.386744 45.274136 57.232492 51.741431 206.680223-47.673789 362.056989-212.086349 457.235722-465.672882C802.844599 227.648023 827.182914 207.520613 797.219485 193.153394zM729.325166 348.376665C645.633045 474.000803 573.544193 599.514425 377.409141 624.33267c36.919864-173.684738 177.474041-311.039036 369.162828-344.943216C746.571968 302.379051 729.325166 325.388091 729.325166 348.376665zM574.099848 382.872317 470.618009 486.355179C470.618009 486.355179 643.089106 489.226576 574.099848 382.872317zM522.35944 693.321928c0 0 43.11803 160.968112 86.23606 137.976468C651.71353 808.299589 585.60488 696.193325 522.35944 693.321928zM280.898063 313.883059c-17.634636-35.94363 96.257298-145.304364 137.977491-137.977491 12.177344 8.65717 102.574167 78.234829 224.213551 17.246803 1.938142-0.968048 3.368724-1.599428 4.480035-2.054799-16.927531 4.715395-127.853923 22.022573-327.409888-170.409135-24.945135-32.455179-245.310032 94.279247-211.733309 189.711759 130.11236 136.882554 159.048389 220.962507 172.47212 327.695391C331.410504 463.675644 317.953004 389.389754 280.898063 313.883059zM647.56914 191.098595M671.31803 48.715771c-30.53648-53.527101-57.232492-112.695688-131.712811-114.26237-44.514843 28.734438-104.341417 28.750811-143.113465 86.235037 19.082614 22.991644 38.166251 45.998637 57.248865 68.989257C619.711675 58.082092 608.898399 61.93791 671.31803 48.715771z"  horiz-adv-x="1024" />

    
    <glyph glyph-name="gd" unicode="&#58886;" d="M128 544C75.008 544 32 500.992 32 448S75.008 352 128 352 224 395.008 224 448 180.992 544 128 544zM512 544C459.008 544 416 500.992 416 448S459.008 352 512 352 608 395.008 608 448 564.992 544 512 544zM896 544c-52.992 0-96-43.008-96-96s43.008-96 96-96 96 43.008 96 96S948.992 544 896 544z"  horiz-adv-x="1024" />

    
    <glyph glyph-name="kefu" unicode="&#58973;" d="M914.285714 384c0 222.213486-180.035657 402.285714-402.285714 402.285714S109.714286 606.213486 109.714286 384s180.035657-402.285714 402.285714-402.285714S914.285714 161.786514 914.285714 384zM164.571429 384c0 37.035886 5.9648 72.6784 16.714971 106.177829 169.713371 3.856457 320.786286 71.786057 423.356343 177.250743 60.178286-61.677714 136.535771-110.785829 224.071314-141.357714C848.285257 482.642286 859.428571 434.642286 859.428571 384c0-191.572114-155.856457-347.428571-347.428571-347.428571S164.571429 192.427886 164.571429 384zM381.714286 489.713371c-38.999771 0-70.535314-31.572114-70.535314-70.464 0-38.999771 31.535543-70.571886 70.535314-70.571886 29.856914 0 55.107657 18.7136 65.285486 44.893257l-51.214629 25.678629 51.214629 25.536C436.821943 471.107657 411.5712 489.713371 381.714286 489.713371zM647.572114 348.463543c29.7856 0 55.107657 18.678857 65.285486 44.964571l-51.285943 25.570743 51.285943 25.607314c-10.177829 26.249143-35.499886 44.893257-65.285486 44.893257-38.999771 0-70.535314-31.572114-70.535314-70.500571C577.034971 380.035657 608.570514 348.463543 647.572114 348.463543zM993.464686 453.856914C968.643657 701.856914 762.177829 896 512 896S55.356343 701.856914 30.535314 453.893486C12.785371 447.285029 0 430.571886 0 410.607543l0-89.749943C0 295.1424 20.964571 274.285714 46.714514 274.285714c25.786514 0 46.749257 20.856686 46.749257 46.571886l0 89.749943c0 17.963886-10.570971 33.071543-25.536 40.821029C91.428571 680.356571 281.607314 859.428571 512 859.428571s420.571429-179.072 444.072229-407.963429c-14.965029-7.749486-25.536-22.893714-25.536-40.8576l0-89.749943c0-19.642514 12.286171-36.2496 29.500343-43.106743-42.784914-182.606629-193.000229-323.893029-380.2496-353.678629C571.035429-63.5008 552.213943-54.857143 530.285714-54.857143c-30.2848 0-54.857143-16.393143-54.857143-36.571429 0-20.214857 24.572343-36.571429 54.857143-36.571429 29.143771 0 52.785371 15.213714 54.535314 34.357029 193.857829 31.749486 349.178514 178.570971 393.214171 368.071314C1003.428571 274.8928 1024 295.427657 1024 320.8576l0 89.749943C1024 430.571886 1011.214629 447.285029 993.464686 453.856914z"  horiz-adv-x="1024" />

    
    <glyph glyph-name="returna" unicode="&#58908;" d="M730.491 31.181l-354.827 354.826 354.827 354.826c20.979 20.979 20.979 54.993 0 75.972-20.98 20.98-54.993 20.98-75.973 0l-382.585-382.583c-11.189-11.189-16.283-31.568-15.487-48.411-0.793-16.733 4.301-36.835 15.487-48.022l382.585-382.585c20.98-20.98 54.993-20.98 75.972 0 20.98 20.981 20.98 54.996 0.001 75.975z"  horiz-adv-x="1024" />

    
    <glyph glyph-name="dingwei1" unicode="&#58978;" d="M470.075-96.719c0 0-334.521 426.837-334.521 609.809 0 182.94 149.785 331.251 334.521 331.251 184.719 0 334.495-148.293 334.495-331.251-0.002-182.978-334.495-609.809-334.495-609.809l0 0zM466.604 654.055c-78.625 0-142.39-63.13-142.39-141.037 0-77.863 63.755-140.995 142.39-140.995 78.668 0 142.405 63.13 142.405 140.995 0 77.885-63.732 141.037-142.405 141.037l0 0z"  horiz-adv-x="1024" />

    
    </font>
</defs>
</svg>
